<svg width="3015" height="4575" viewBox="0 0 3015 4575" fill="none" xmlns="http://www.w3.org/2000/svg">
<path d="M2283.94 4486L2294.94 4489.5L2361.94 4533.5L2389.94 4530L2391.94 4543.5H2355.94L2304.94 4537.5L2283.94 4486ZM2283.94 4486V4476.5L2275.94 4471.5L2283.94 4486ZM2427.94 4537.5L2404.44 4547.5V4533.5L2427.94 4537.5Z" stroke="#FF6D00" stroke-width="5"/>
<path d="M2250.44 4438L2271.44 4457H2257.44L2259.44 4452H2242.44L2227.94 4444.5H2175.44L2155.44 4431.5L2149.94 4415L2143.44 4404L2122.44 4400L2095.94 4373.5V4362L2109.44 4338.5L2104.44 4333L2112.94 4322L2099.94 4309V4294L2104.44 4289.5L2095.94 4278.5L2104.44 4270.5V4262.5L2088.94 4250.5L2093.94 4246.5L2086.94 4239L2088.94 4233.5L2093.94 4223.5L2071.94 4206L2088.94 4202V4199L2083.94 4195L2068.44 4189V4185L2058.44 4166.5L2053.44 4152L2040.94 4146.5L2037.94 4134.5L2032.44 4122.5L2037.94 4111L2030.44 4095.5L2019.44 4070.5L2017.44 4050.5L2013.94 4032.5L2019.44 4028.5L2011.94 4008L2025.44 3998.5L2019.44 3984.5L2001.94 3952.5L1997.94 3937.5V3926.5L2011.94 3905.5L1997.94 3883.5L2003.94 3876.5V3854L2011.94 3846L2003.94 3834V3816L1994.44 3811L1987.94 3792L1977.94 3773.5L1975.44 3766.5L1968.94 3758L1963.44 3746L1968.94 3737V3715.5L1975.44 3712.5V3700L1963.44 3678.5L1968.94 3669.5V3655.5L1979.94 3622.5L1983.44 3603.5L2000.94 3597.5V3592.5L1986.94 3579.5L1991.44 3573V3560L1983.44 3546.5V3535.5L1988.94 3532L1979.94 3519.5L1988.94 3508L2011.44 3496L2018.44 3486.5L2016.44 3464.5L2011.44 3452.5L2037.94 3417.5L2049.94 3429H2079.94L2099.44 3452.5V3439.5L2105.94 3425H2134.94L2140.44 3429L2159.94 3452.5L2178.44 3469.5L2196.94 3486.5L2213.44 3496H2229.94L2253.94 3512L2305.94 3539V3553L2294.94 3574L2289.44 3594.5L2284.44 3607.5H2309.44L2312.94 3611L2329.44 3614L2341.44 3617H2354.44L2358.94 3611L2372.44 3607.5L2381.94 3599L2396.94 3582.5V3555L2403.94 3548H2412.44L2422.94 3559.5L2427.94 3574V3602.5L2381.94 3635.5L2372.44 3645.5L2356.44 3679L2334.94 3706L2326.44 3718L2329.44 3787.5L2337.44 3803.5L2329.44 3808.5V3825.5L2337.44 3835.5V3856L2380.94 3880V3907.5L2387.44 3917H2397.44L2406.44 3923L2409.44 3942L2391.94 3965V3981L2365.94 3995.5L2337.44 4004L2316.94 4008.5H2288.94L2283.44 4004V4017.5L2265.44 4004L2285.94 4039L2276.94 4041.5V4052.5L2288.94 4068L2276.94 4081.5H2244.94L2216.44 4064.5L2207.44 4079L2216.44 4087L2220.44 4102.5L2229.94 4117L2241.94 4122L2235.44 4133.5L2253.44 4147L2235.44 4158L2240.44 4169.5L2244.94 4198L2240.44 4202L2241.94 4211L2225.44 4213.5L2201.44 4233.5L2207.44 4256L2240.44 4283L2261.94 4281L2271.44 4288L2268.94 4309L2276.94 4311.5V4316L2241.94 4346V4358H2250.44V4382.5H2241.94L2225.44 4373.5L2235.44 4387L2225.44 4400L2227.94 4419H2235.44L2244.94 4429L2227.94 4435.5L2250.44 4438Z" stroke="#FF6D00" stroke-width="5"/>
<path d="M2453.44 4441.5L2468.94 4454.5L2491.94 4428L2463.94 4424.5L2466.94 4435L2453.44 4441.5Z" stroke="#FF6D00" stroke-width="5"/>
<path d="M2491.94 4448L2499.94 4459L2537.94 4436.5L2502.44 4422L2507.94 4435L2491.94 4448Z" stroke="#FF6D00" stroke-width="5"/>
<path d="M1967.63 3390.5L1955.94 3374.5L1953.44 3361.5L1957.44 3357L1955.94 3351L1957.44 3329L1948.44 3317.5L1936.44 3305V3291L1922.44 3270.5L1912.44 3275.5L1914.44 3289L1909.94 3299.5L1898.94 3301L1903.94 3322.5L1905.44 3338L1917.94 3396V3414M1948.44 3317.5L1932.94 3334H1924.44L1905.44 3338M1982.94 3550V3538.5L1987.94 3533.5L1979.44 3519.5L1991.94 3506.5L2017.44 3493.5L2013.94 3450L2006.94 3458H1998.44L1991.94 3450L1988.44 3434L1977.44 3416L1974.94 3400.5L1967.63 3390.5M1982.94 3550L1987.94 3555L1991.94 3566.5L1987.94 3581L2000.44 3593.5L1996.94 3597.5L1982.94 3606V3622L1973.44 3640L1968.44 3651L1971.94 3665.5L1964.44 3678.5L1974.94 3701.6M1982.94 3550L1970.44 3555L1968.44 3570L1954.44 3577.5L1924.43 3581M1989.55 3797L1987.94 3792L1976.94 3768L1962.94 3747L1968.44 3738.5V3716.5L1974.94 3713L1976.94 3706L1974.94 3701.6M1976.94 3768L1968.44 3765.5L1944.94 3775.5M1999.94 3941V3925L2003.94 3920.5M2063.19 4179.25L2058.94 4168.5L2054.94 4155L2039.44 4146V4136L2034.94 4132L2032.94 4120L2041.44 4112.5L2034.94 4108L2028.44 4091.5L2020.94 4071.5L2020.02 4068L2015.44 4050.5L2011.94 4033L2015.44 4030L2013.94 4008L2022.94 3997.5L2019.44 3983L2011.94 3972.4L2004.94 3962.5L1999.94 3941M1999.94 3941L1986.44 3937.5L1965.94 3947L1955.44 3941L1940.94 3925M2015.44 4030L1995.94 4026L1965.94 4030M1947.93 3861L1946.94 3833.5L1952.94 3819.5L1946.94 3803.5L1948.44 3792L1944.94 3775.5M1946.94 3833.5L1959.94 3835.75M1944.94 3775.5L1922.94 3719V3709.5L1932.44 3706L1929.94 3683.5M1917.94 3414V3458L1910.94 3467L1917.94 3480.5V3517.5L1927.44 3533.5L1920.94 3546L1924.94 3566.5L1924.43 3581L1922.94 3624L1920.94 3656.5H1915.94V3665.5L1929.94 3683.5M1929.94 3683.5H1932.44L1940.94 3691L1950.44 3685.5L1962.94 3693.5L1974.94 3701.6M1917.94 3414L1932.94 3421.5L1937.94 3414L1957.44 3405.5L1967.63 3390.5M1965.94 4030V4016L1953.04 3995L1930.94 3959L1928.94 3943H1940.94V3925M1940.94 3925V3906.75M1940.94 3906.75V3888.5L1948.44 3875L1947.93 3861M1940.94 3906.75L1957.44 3916.5L1965.94 3911.5L1986.44 3920.5L1994.94 3916.5L2003.94 3920.5M2003.94 3920.5L2011.94 3911.5V3904L1999.94 3881L2004.94 3873V3863.25M2004.94 3863.25V3853.5L2008.44 3850.5L2004.94 3834.5L2004.26 3830M2004.94 3863.25L1988.94 3859L1963.44 3866.5L1947.93 3861M2004.26 3830L2001.94 3814.5H1999.94L1992.94 3807.5L1989.55 3797M2004.26 3830L1994.94 3824L1979.94 3838H1972.94L1959.94 3835.75M1989.55 3797L1972.94 3794.5L1959.94 3835.75M1953.04 3995L1957.44 3968L1989.94 3978L1995.94 3983L2011.94 3972.4M1965.94 4030V4038.5H1961.44L1962.83 4068M1962.83 4068L1963.44 4081L1981.94 4102.5H1969.94L1978.94 4156L2002.44 4158.5L1997.94 4126.5L1989.94 4106.5L1995.94 4097H2004.44L2015.44 4120L2018.94 4156L2026.46 4175M1962.83 4068L1978.94 4065.5L1989.94 4074.5L2020.02 4068M2026.46 4175L2028.44 4180V4219L2022.44 4200.5H2015.44L2011.94 4180L1995.94 4170.5V4203.5L2011.94 4222L2000.44 4235.5L2002.44 4255L1990.94 4258L1995.94 4278.5L2006.94 4282L2004.44 4266.5L2038.44 4284L2035.94 4302.5L2022.44 4300.5L2020.44 4331L2038.44 4354L2041.44 4369L2045.94 4373.25M2026.46 4175L2039.44 4170.5L2063.19 4179.25M2045.94 4373.25L2050.44 4377.5L2061.44 4406.5L2079.94 4410.5V4429.5L2098.94 4416.5L2113.44 4431.5L2086.94 4435.5L2107.44 4459V4443L2133.94 4455L2143.94 4478.5L2113.44 4468L2153.44 4493L2175.44 4518.5L2196.94 4509L2230.94 4507L2216.94 4470L2267.44 4455L2237.44 4448.5L2175.44 4446L2157.44 4429.5L2146.44 4406.5L2117.44 4400L2103.44 4380.71L2094.94 4369V4359.5L2107.44 4338L2103.44 4331L2110.44 4322L2098.94 4311L2101.44 4282V4272V4264.5L2091.94 4255L2094.94 4246L2085.94 4235.5L2094.94 4224L2073.94 4207.5L2088.44 4200.5L2067.44 4190L2063.19 4179.25M2045.94 4373.25L2076.94 4365.5L2103.44 4380.71" stroke="#F42906" stroke-width="5"/>
<path d="M2270.44 4468H2249.44L2238.44 4471L2229.94 4484L2239.94 4493L2258.44 4488.5L2263.94 4497.5L2238.44 4509.5L2239.94 4525L2215.94 4530L2235.44 4534L2231.94 4541L2263.94 4549.5L2258.44 4541H2278.94L2273.44 4554L2295.94 4559.5V4549.5L2305.44 4559.5L2324.94 4562.5V4557L2344.44 4572.5H2362.94L2327.94 4552.5H2354.44L2346.94 4543.5L2324.94 4541L2305.44 4534L2270.44 4468Z" stroke="#F42906" stroke-width="5"/>
<path d="M2226.94 4513.5L2198.94 4516L2196.94 4524.5L2205.94 4527.5L2226.94 4521V4513.5Z" stroke="#F42906" stroke-width="5"/>
<path d="M2345.44 3710.5H2329.94V3783.5L2337.94 3797.5L2329.94 3804.5L2332.94 3830L2353.94 3852.5H2372.44L2386.44 3863L2409.44 3870.5L2425.94 3868L2454.44 3865.5L2478.44 3843L2481.44 3830L2472.44 3818V3804.5L2481.44 3795.5L2428.94 3753L2409.44 3743L2395.94 3728L2390.94 3737.5H2386.44L2382.94 3728L2355.94 3702.5H2349.94L2345.44 3710.5Z" stroke="#FF6D00" stroke-width="5"/>
<path d="M2312.94 3609.5H2284.94L2286.94 3600L2294.44 3592.5V3573.5L2305.44 3553.5V3540L2268.44 3520.5L2238.94 3501L2222.44 3496L2198.94 3487L2149.44 3440.5L2144.94 3429.5L2149.44 3408V3373.5L2155.94 3361.5L2164.44 3343L2181.94 3340.5L2198.94 3334L2213.94 3332L2242.44 3334L2268.44 3353L2272.94 3373.5L2283.44 3385L2280.44 3425L2294.44 3433.5H2320.44L2323.44 3429.5H2336.94L2356.44 3449.5L2354.44 3462L2359.44 3466.5L2365.44 3491.5H2379.94L2381.94 3487H2392.94L2399.44 3496L2403.44 3525.5L2395.94 3535V3585L2370.44 3611.5L2362.44 3609.5L2356.44 3615H2326.44L2312.94 3609.5Z" stroke="#FF6D00" stroke-width="5"/>
<path d="M2078.44 3427.5L2093.94 3455.5L2103.94 3427.5L2131.94 3424.5L2144.94 3434.5L2150.44 3408V3371.5L2163.94 3347L2185.94 3338.5L2218.44 3333L2249.94 3338.5L2275.94 3356.5L2271.94 3342L2275.94 3318.5L2281.44 3308L2275.94 3281L2263.94 3271.5L2249.94 3259.5V3233.5H2206.44L2197.44 3223.5V3208.5L2183.44 3193.5L2191.44 3185.5L2183.44 3166V3150.5L2169.44 3136.5H2137.94L2131.44 3123.5L2108.94 3116.5L2089.44 3099H2061.44L2029.94 3063.5L2022.94 3037L2029.94 3025.5L2024.94 3005.5H1991.94L1956.44 3035H1946.44L1929.94 3052.5L1921.44 3045H1899.44L1929.94 3099L1923.94 3106.5V3141L1929.94 3150.5L1918.44 3168.5V3198.5L1929.94 3208.5L1940.94 3233.5L1918.44 3264L1940.94 3308L1957.44 3328.5V3356.5L1951.44 3361.5L1976.44 3401.5L1994.44 3455.5H2007.44L2038.44 3416.5L2047.94 3427.5H2078.44Z" stroke="#FF6D00" stroke-width="5"/>
<path d="M1910.44 3298.5H1892.44L1874.44 3285L1865.44 3274L1853.44 3259.5L1828.94 3244.5L1800.94 3231.5L1775.44 3217.5L1752.44 3205L1731.94 3185L1716.94 3168L1704.44 3154L1707.94 3146.5V3132L1693.94 3109.5L1674.44 3085.5V3072.5L1657.94 3058L1654.94 3042.5L1636.44 3013L1619.44 2974.5L1598.94 2939L1582.44 2907L1558.94 2888.5L1539.44 2882L1537.44 2874L1549.44 2866L1537.44 2851.5L1530.44 2832.5L1539.44 2808L1558.94 2788L1566.44 2784.5L1568.94 2801.5L1558.94 2806V2822H1582.44L1598.94 2845L1611.94 2828.5L1616.44 2808L1624.44 2784.5L1640.94 2770.5L1662.94 2761.5L1681.94 2754L1700.44 2728.5L1713.44 2702.5V2689L1702.44 2673H1719.94L1735.94 2684L1741.44 2698L1760.94 2711L1763.94 2726L1775.44 2735L1782.44 2754L1805.94 2758.5L1815.94 2746.5L1829.94 2750.5L1846.44 2746.5L1867.94 2758.5L1872.94 2770.5L1855.94 2789.5L1858.44 2798.5L1878.44 2813L1872.94 2818L1855.94 2813L1842.94 2824H1822.44L1786.94 2850L1782.44 2873L1784.44 2892L1766.94 2907L1764.94 2922.5L1758.44 2927.5L1770.44 2946.5L1789.94 2974.5L1786.94 2994H1808.94L1820.44 3016.5H1837.94L1842.94 3013L1865.44 2994V3042.5L1875.44 3052.5L1888.44 3044.5H1898.94L1929.44 3095.5L1923.94 3108V3145L1929.44 3149.5L1916.94 3173.5L1919.94 3202L1903.44 3191.5L1898.94 3210.5L1919.94 3225L1938.94 3231.5L1914.94 3258L1919.94 3269.5L1914.94 3274L1910.44 3298.5Z" stroke="#FF6D00" stroke-width="5"/>
<path d="M1575.94 2776.5V2744.5L1562.94 2767L1542.94 2748.5L1546.94 2738.5V2715L1542.94 2704L1559.44 2692L1555.44 2683.5L1567.94 2661.5V2643.5L1582.44 2633.5H1603.44L1606.94 2621L1618.44 2636.5H1635.44L1653.94 2656H1685.94L1712.94 2683.5L1716.44 2695.5L1708.44 2719L1677.94 2758.5L1648.94 2767L1635.44 2776.5L1618.44 2802.5L1614.44 2823.5L1606.94 2842H1595.44L1575.94 2820.5H1559.44V2808L1567.94 2802.5V2795.5L1559.44 2790L1575.94 2776.5Z" stroke="#FF6D00" stroke-width="5"/>
<path d="M1290.94 2694L1283.44 2704.5L1281.44 2696L1290.94 2694Z" stroke="#FF6D00" stroke-width="5"/>
<path d="M1257.44 2714L1254.44 2719.5L1251.44 2711.5L1257.44 2714Z" stroke="#FF6D00" stroke-width="5"/>
<path d="M1235.44 2708H1224.94L1221.44 2700.5L1230.44 2694L1224.94 2686L1221.44 2688.5L1219.44 2679.5V2667L1230.44 2673L1237.94 2682.5L1239.94 2690L1243.44 2696L1235.44 2708Z" stroke="#FF6D00" stroke-width="5"/>
<path d="M1263.94 2691L1258.44 2698.5H1252.94L1251.44 2690L1243.44 2675.5L1258.44 2686L1263.94 2691Z" stroke="#FF6D00" stroke-width="5"/>
<path d="M1853.94 2799.5L1875.94 2815L1883.44 2807V2783.5L1888.94 2739V2728.5L1894.94 2714L1888.94 2694L1871.44 2674V2655.5L1876.94 2647H1894.94L1901.94 2640.5L1892.44 2631L1876.94 2629V2609.5H1922.94L1928.44 2606L1937.94 2609.5L1947.94 2596L1962.44 2601.5V2590L1944.94 2569L1955.94 2556.5V2550L1941.44 2527.5L1944.94 2487.5L1953.44 2470L1955.94 2458.5L1944.94 2455L1937.94 2458.5H1894.94L1881.44 2432.5L1863.94 2427L1848.44 2432.5L1818.94 2427L1802.44 2405L1809.94 2397.5L1810.44 2385.5L1802.44 2370.5V2363L1793.94 2353.5H1783.44L1796.94 2328.5L1802.44 2305L1815.44 2289.5L1830.44 2269.5L1855.44 2264.5V2250L1844.44 2241.5L1837.94 2250H1823.94V2257.5L1787.44 2282H1762.94L1749.94 2299.5L1746.44 2289.5H1739.94L1719.94 2305L1712.44 2345.5L1675.44 2375V2395L1659.94 2370.5V2401L1652.94 2405L1639.94 2419.5L1652.94 2443V2455L1659.94 2468.5L1649.94 2472.5L1652.94 2484.5L1649.94 2531.5L1659.94 2543L1633.44 2585H1620.44L1611.44 2590V2609.5H1598.94L1620.44 2640.5H1639.94L1649.94 2662H1667.44L1680.94 2655.5L1702.94 2671L1728.94 2674L1741.94 2698L1760.94 2714V2724L1775.94 2734L1781.44 2757H1809.44L1819.44 2744.5L1838.44 2751.5L1846.94 2748L1875.94 2766.5L1853.94 2799.5Z" stroke="#FF6D00" stroke-width="5"/>
<path d="M2009.44 2651.5L2027.94 2628L2051.44 2618L2063.94 2598L2074.94 2593.5V2585.5L2051.44 2582.5L2053.94 2565L2046.94 2542.5L2032.94 2521.5L2053.94 2531L2079.94 2537L2092.44 2549.5L2094.94 2531L2125.94 2527L2151.44 2512L2161.94 2502V2490.5L2138.94 2469.5L2146.44 2456V2439H2164.94L2170.44 2427L2161.94 2422V2406.5L2190.44 2383.5L2174.94 2371L2158.44 2374.5L2140.94 2377L2154.94 2365.5L2158.44 2345L2132.44 2334H2119.94L2108.94 2321.5L2101.94 2311L2130.44 2300H2062.44L2044.44 2321.5L2032.94 2326L1998.44 2305.5H1974.94L1964.44 2311H1939.44L1934.44 2286.5L1918.44 2275.5H1897.44L1895.44 2252.5H1887.44L1884.94 2255.5L1880.44 2264.5L1884.94 2277.5L1860.44 2286.5L1836.94 2300L1840.94 2316L1848.44 2329L1852.44 2347.5L1836.94 2360.5L1829.94 2351.5L1816.94 2333.5L1823.44 2321.5L1836.94 2308V2289L1825.94 2281L1816.94 2286.5L1801.94 2308L1794.94 2326V2342L1785.94 2354.5L1798.44 2360.5L1801.94 2375.5L1808.94 2383V2396.5L1804.94 2409L1820.94 2430.5H1852.44L1857.44 2426.5L1864.44 2430.5H1876.44L1890.94 2453L1897.44 2459.5H1939.44L1944.94 2453L1954.94 2456V2465.5L1944.94 2483.5V2492.5L1942.44 2531L1953.44 2544L1954.94 2548.5V2555L1942.44 2569.5L1959.94 2587.5L1957.94 2600L1964.44 2618L1974.44 2633.5L1982.94 2644.5H1995.44L2003.94 2633.5L2008.44 2635L2009.44 2651.5Z" stroke="#FF6D00" stroke-width="5"/>
<path d="M2257.44 2604.5H2279.44L2280.44 2602.5L2270.44 2587.5L2264.44 2572.5L2260.44 2554.5H2253.44L2245.94 2546.5L2236.44 2533L2240.94 2522.5L2245.94 2500.5L2264.44 2492L2266.94 2474.5V2462.5L2253.44 2448L2240.94 2436H2229.94L2218.94 2451L2224.44 2436L2229.94 2426L2224.44 2411.5L2204.94 2389.5L2190.44 2381.5L2164.94 2405V2420.5L2171.44 2426L2161.94 2440H2145.94V2459.5L2139.44 2468L2158.94 2492L2171.44 2489L2180.94 2498V2500.5L2175.94 2509L2185.44 2514.5L2187.94 2527.5L2192.94 2537.5L2175.94 2564.5L2180.94 2587.5L2187.94 2610L2204.94 2628H2218.94L2257.44 2604.5Z" stroke="#FF6D00" stroke-width="5"/>
<path d="M2343.94 2464.5L2361.94 2474.5L2358.94 2483L2348.44 2496.5L2349.44 2528L2360.94 2543L2358.94 2554.5L2352.94 2562.5V2578.5L2343.94 2593.5L2335.44 2584.5L2324.44 2581.5H2303.44L2294.44 2590L2297.44 2598.5L2303.44 2603H2280.94L2271.44 2593.5V2581.5L2260.44 2570V2556L2252.44 2554.5L2240.94 2541L2235.44 2531L2240.94 2518.5L2244.44 2503L2258.44 2498.5L2265.94 2492V2474.5L2271.44 2464.5H2291.44L2303.44 2474.5L2306.94 2464.5H2328.94H2343.94Z" stroke="#FF6D00" stroke-width="5"/>
<path d="M2432.94 2516V2530.5L2422.94 2540L2410.94 2558L2405.94 2577.5L2389.44 2595L2376.94 2590.5L2365.94 2587.5L2351.94 2598.5L2344.94 2590.5L2351.94 2583.5L2356.44 2569.5V2558L2362.44 2546.5L2351.94 2534L2348.44 2523V2496L2362.44 2483V2471.5L2376.94 2480H2389.44L2403.44 2492.5L2419.94 2509L2432.94 2516Z" stroke="#FF6D00" stroke-width="5"/>
<path d="M2467.94 3814.5L2478.94 3826.5L2494.44 3811L2501.44 3787L2503.94 3778V3772.5L2501.44 3763.5L2503.94 3754.5L2512.94 3741.5L2518.44 3725.5V3712.5L2532.44 3709.5L2535.94 3715.5L2528.44 3734L2518.44 3754.5L2509.44 3763.5L2512.94 3769.5L2532.44 3748.5L2544.44 3725.5L2551.44 3695.5L2566.94 3666.5L2579.94 3650L2583.94 3627L2579.94 3602L2576.44 3584V3559.5V3545.5L2590.44 3534L2606.94 3511.5L2638.44 3492L2662.94 3484.5L2676.94 3473.5L2687.44 3457.5H2722.44H2759.44L2761.94 3441.5L2784.44 3426.5L2788.44 3395L2796.44 3377L2804.94 3358.5L2818.94 3340.5L2813.94 3324V3300.5L2829.94 3280.5L2826.94 3258.5L2832.44 3233L2829.94 3204L2826.94 3182.5V3156.5L2822.94 3147.5L2826.94 3134.5L2829.94 3109L2841.94 3115.5L2856.44 3103.5L2867.44 3074L2876.44 3049.5L2894.44 3031L2915.94 3006L2937.94 2973L2944.44 2947V2916L2937.94 2890L2933.44 2875.5V2863L2919.94 2845H2886.44L2862.44 2832L2837.94 2808.5L2816.94 2789L2798.44 2772L2784.44 2764.5L2759.94 2769.5L2743.44 2772L2733.44 2764.5H2716.44L2701.94 2761L2688.44 2750L2664.94 2761L2644.44 2775V2754V2733.5L2634.94 2722.5L2616.44 2720L2610.44 2711.5L2596.94 2705L2575.44 2700.5L2552.44 2692.5L2536.94 2697.5L2531.44 2707.5L2526.44 2720L2516.44 2725L2505.94 2740.5L2497.94 2756.5V2740.5V2733.5L2489.44 2736.5H2468.44L2455.94 2727L2454.44 2715.5L2451.94 2700.5L2446.44 2707.5L2435.94 2720L2421.94 2725H2406.44V2720L2414.44 2715.5L2427.94 2707.5L2431.94 2692.5L2439.44 2679.5L2454.44 2665L2468.44 2650L2478.94 2634.5L2484.44 2616L2475.44 2608L2465.94 2604L2459.44 2590.5L2451.94 2563.5L2449.44 2549.5L2446.44 2532.5L2439.44 2525.5L2431.94 2532.5L2421.94 2545.5L2411.44 2559.5L2406.44 2575.5L2396.94 2590.5L2387.44 2595L2381.94 2590.5L2367.94 2588L2356.44 2595H2347.44L2332.94 2583.5H2323.94H2302.94L2291.94 2590.5L2301.44 2604H2291.94H2266.44L2251.94 2611L2228.94 2620.5L2209.44 2627.5L2192.44 2611L2180.44 2590.5L2176.94 2569L2184.44 2549.5L2192.44 2532.5L2184.44 2517.5L2176.94 2512L2180.44 2504L2176.94 2489.5L2163.44 2494.5L2151.44 2515H2140.94L2127.44 2528H2096.94L2089.94 2545.5L2082.44 2535.5H2055.94L2052.44 2528H2034.44L2048.94 2545.5L2052.44 2563.5L2055.94 2581.5H2074.94V2595L2052.44 2618L2039.94 2620.5L2007.94 2644V2633.5L1993.44 2644H1984.44L1974.44 2633.5L1961.44 2627.5L1949.94 2598.5L1929.44 2611H1884.44L1877.94 2614.5V2627.5L1884.44 2630.5L1899.44 2638V2647H1887.44L1871.94 2650L1874.44 2675.5L1887.44 2696L1894.44 2718L1887.44 2746.5L1884.44 2787.5L1877.94 2811.5L1871.94 2818L1856.94 2811.5L1838.94 2822H1818.94L1788.44 2846L1784.94 2865.5L1780.44 2872.5V2895L1766.94 2905L1763.94 2917.5L1759.44 2921.5L1763.94 2934.5L1776.94 2958.5L1791.44 2976L1788.44 2982.5V2996H1810.94L1818.94 3013H1842.94L1865.44 2996V3042.5L1877.94 3050.5L1901.94 3045L1918.44 3050.5H1932.44L1943.94 3037L1956.44 3034.5L1968.94 3024L1982.94 3013L1991.94 3009.5H2012.44L2022.94 3004L2025.44 3021.5L2022.94 3024V3037L2025.44 3042.5V3054.5L2031.44 3066.5L2041.44 3084.5H2048.94L2061.94 3099H2079.94L2095.94 3108L2106.94 3119.5L2124.44 3122L2137.94 3135H2167.94L2183.44 3142.5V3161L2189.44 3170.5V3187.5H2183.44L2194.44 3202.5V3218.5L2199.44 3231H2248.94V3250.5L2258.44 3267.5L2270.94 3271L2283.44 3287.5L2280.44 3304.5L2277.44 3323.5L2270.94 3335V3344.5L2277.44 3358.5H2270.94L2280.44 3382.5L2283.44 3396L2280.44 3425.5L2296.44 3432H2319.94H2331.44L2348.44 3440L2354.94 3456.5L2358.94 3474.5L2365.44 3488.5L2371.94 3496L2383.94 3488.5H2391.44L2398.44 3496V3533H2395.94L2398.44 3549.5H2404.94H2418.94L2427.94 3568V3601.5L2411.44 3610L2395.94 3625L2367.94 3651.5L2354.94 3674L2341.94 3696.5L2325.94 3708.5H2341.94L2346.94 3701H2354.94L2358.94 3708.5L2376.44 3719.5L2383.94 3730.5L2387.44 3736.5L2395.94 3730.5L2404.94 3741.5L2418.94 3747L2436.94 3760.5L2455.94 3775L2481.44 3793.5L2470.44 3802.5L2467.94 3814.5Z" stroke="#FF6D00" stroke-width="5"/>
<path d="M2469.44 2731L2460.94 2723.5V2713L2459.94 2698V2678.5L2480.94 2674L2499.44 2671.5L2527.94 2678.5L2524.44 2701L2514.44 2721L2486.44 2731H2469.44Z" stroke="#FF6D00" stroke-width="5"/>
<path d="M2473.94 2656L2465.94 2669.5L2483.94 2667.5L2490.94 2657.5L2473.94 2656Z" stroke="#FF6D00" stroke-width="5"/>
<path d="M1662.94 2400L1640.44 2422L1626.44 2406V2395L1634.44 2385.5L1645.94 2390L1640.44 2379H1626.44L1616.94 2365L1607.44 2361L1591.44 2365L1575.94 2385.5H1566.94L1564.94 2395L1580.94 2410.5L1569.94 2415.5L1553.94 2422L1549.44 2415.5L1547.44 2400H1543.44L1538.94 2415V2410.5L1527.44 2393L1510.44 2386L1488.44 2384L1495.44 2365L1491.44 2355.5L1497.94 2339.5L1511.94 2344.5L1513.94 2361H1527.44L1538.94 2368.5L1553.94 2365L1575.94 2353.5L1591.44 2343.5H1611.94L1637.44 2355.5L1658.94 2372.5L1662.94 2400Z" stroke="#FF6D00" stroke-width="5"/>
<path d="M1522.94 2408.5L1528.44 2417L1519.94 2413.5L1522.94 2408.5Z" stroke="#FF6D00" stroke-width="5"/>
<path d="M1611.94 2381.5L1610.44 2386L1615.44 2384.5L1611.94 2381.5Z" stroke="#FF6D00" stroke-width="5"/>
<path d="M1497.94 2366L1492.94 2391.5L1478.94 2370.5L1480.44 2382H1475.44L1467.44 2373L1471.94 2366V2361L1456.94 2347.5L1444.44 2342.5L1440.94 2329L1426.44 2318.5L1432.94 2329V2335.5L1426.44 2342.5L1406.94 2324.5V2315L1412.94 2306.5L1406.94 2298L1412.94 2287.5L1426.44 2290.5L1437.44 2294.5L1444.44 2290.5L1460.94 2304H1475.44L1506.44 2342.5H1497.94L1492.94 2357L1497.94 2366Z" stroke="#FF6D00" stroke-width="5"/>
<path d="M1457.44 2301L1474.94 2306L1469.44 2283.5L1474.94 2272V2254.5L1485.94 2235.5V2211L1489.44 2194.5L1499.44 2175V2152.5L1489.44 2160L1457.44 2165L1450.94 2160L1419.94 2194.5L1414.44 2188L1409.94 2195.5H1389.44V2211L1378.94 2221.5H1360.44V2235.5L1371.44 2240.5L1389.44 2262.5L1414.44 2287L1417.44 2276.5L1409.94 2272V2258L1417.44 2254.5L1437.94 2279.5L1441.44 2290.5L1457.44 2301Z" stroke="#FF6D00" stroke-width="5"/>
<path d="M1381.94 2222.5L1371.44 2224.5L1369.44 2212H1357.94L1361.44 2200L1355.44 2192.5L1335.44 2189.5L1315.44 2175L1317.94 2167L1324.44 2152L1351.44 2129.5L1371.44 2127.5L1399.94 2129.5L1415.94 2122H1444.44L1471.94 2127.5L1485.44 2141.5L1502.94 2154.5L1475.94 2167H1459.44L1451.94 2160L1420.94 2194.5L1412.94 2187.5L1405.94 2194.5L1391.44 2197.5L1381.94 2222.5Z" stroke="#FF6D00" stroke-width="5"/>
<path d="M1360.44 2195.5L1353.44 2217V2219.5H1343.94L1341.94 2217H1325.44L1312.94 2206H1296.94L1288.94 2202V2195.5L1301.44 2183.5L1312.94 2173.5L1317.44 2176L1330.94 2183.5L1338.94 2195.5L1348.44 2190.5L1360.44 2195.5Z" stroke="#FF6D00" stroke-width="5"/>
<path d="M1318.44 2172L1287.94 2198L1279.44 2192L1247.44 2189L1227.44 2172L1233.44 2165.5V2145.5L1239.94 2130L1250.44 2118.5L1284.94 2123.5L1290.94 2118.5L1287.94 2104.5L1265.94 2080.5L1279.44 2075.5V2057H1338.44L1331.44 2089V2108.5L1323.44 2123.5L1340.94 2125.5L1353.94 2130L1320.94 2155.5L1318.44 2172Z" stroke="#FF6D00" stroke-width="5"/>
<path d="M1330.94 2111.5L1324.44 2124L1352.44 2104.5L1356.44 2093.5L1362.94 2066.5L1367.44 2051L1362.94 2035L1344.94 2053L1334.44 2064L1330.94 2093.5V2111.5Z" stroke="#FF6D00" stroke-width="5"/>
<path d="M1498.94 1912.5L1481.44 1918.5L1498.94 1921.5L1513.44 1909H1527.94L1537.44 1900.5L1551.44 1891.5H1576.94L1580.94 1900.5H1566.44L1570.44 1909H1584.94L1599.94 1912.5H1614.94L1620.44 1918.5L1633.94 1930.5H1650.94L1659.94 1928L1666.94 1934.5L1671.44 1951.5L1686.44 1961H1702.44L1705.44 1975L1693.94 1979L1683.44 1989L1702.44 1992L1712.44 1986H1741.44L1752.44 1992L1762.44 1986L1788.44 1982L1791.44 1975L1774.94 1961L1748.44 1958L1752.44 1947.5L1748.44 1943.5H1734.44L1721.94 1938.5L1708.44 1928L1680.94 1909L1671.44 1900.5H1650.94L1646.44 1897L1639.94 1887H1626.94L1620.44 1880H1607.44H1589.94L1584.94 1873.5H1570.44L1543.44 1880L1519.44 1887L1498.94 1900.5V1912.5Z" stroke="#FF6D00" stroke-width="5"/>
<path d="M1554.44 1931.5L1536.44 1937.5L1531.94 1924.5L1543.94 1914.5L1554.44 1931.5Z" stroke="#FF6D00" stroke-width="5"/>
<path d="M1699.94 2036.5L1724.94 2054L1710.94 2058L1704.94 2054L1698.44 2056.5L1692.44 2063.5L1685.44 2058L1675.44 2054L1657.44 2044L1663.94 2036.5L1678.94 2033.5L1699.94 2036.5Z" stroke="#FF6D00" stroke-width="5"/>
<path d="M1856.44 2038.5V2052.5L1844.94 2046L1831.94 2043.5L1827.44 2048.5L1824.44 2043.5H1802.44L1798.44 2048.5H1791.44L1778.94 2043.5V2033.5L1786.94 2027L1802.44 2033.5H1811.94H1824.44L1819.44 2022.5L1831.94 2033.5H1842.44L1838.44 2024.5L1833.94 2020L1831.94 2004.5L1824.44 1997.5H1816.44L1811.94 1991L1820.94 1985H1831.94L1838.44 1977.5V1985L1844.94 1991H1852.94L1865.44 1993V2010.5L1860.94 2014.5V2024.5L1853.94 2030L1856.44 2038.5Z" stroke="#FF6D00" stroke-width="5"/>
<path d="M1857.94 2037L1853.94 2052L1864.44 2065.5L1871.44 2060L1877.94 2045L1890.94 2037V2045H1903.94L1912.94 2036L1938.94 2037L1945.44 2040L1947.94 2049L1951.44 2040L1962.44 2031.5L1947.94 2018.5L1926.94 2013L1923.44 2006L1910.94 1992.5L1890.94 1986H1871.44L1864.44 1990V2015L1861.44 2026L1853.94 2028.5L1857.94 2037Z" stroke="#FF6D00" stroke-width="5"/>
<path d="M1992.94 2044V2053.5H2031.94L2041.44 2044L2034.44 2034.5H1992.94V2044Z" stroke="#FF6D00" stroke-width="5"/>
<path d="M1234.44 2159L1227.94 2170L1224.44 2168L1209.44 2146L1184.44 2118.5L1166.44 2113H1152.94L1135.94 2124.5L1119.44 2131H1100.44L1084.94 2124.5L1059.44 2118.5L1041.44 2103L1027.94 2100.5L1000.44 2086.5L978.438 2076.5L956.438 2054.5L940.938 2056.5L916.938 2046L902.438 2028L882.438 2012.5L858.938 1990L853.938 1973L866.438 1964.5V1953.5L876.938 1942.5L873.938 1929L868.438 1923V1894L850.938 1872.5L842.438 1853L820.938 1830L813.938 1817.5L811.938 1808.5L804.438 1804.5L795.438 1795L783.438 1788.5L779.438 1782.5L788.938 1768L793.438 1760.5L788.938 1755.5H777.438V1747L774.938 1738.5H763.938V1716.5L762.438 1713H757.438L752.938 1708.5L738.938 1694L734.938 1684L730.938 1676.5L725.438 1683.5H721.938V1678.5L727.938 1665V1646V1633.5L725.438 1616.5L728.938 1610.5V1599.5L721.938 1595.5L712.938 1585L700.938 1588.5L692.438 1580L685.438 1575L682.938 1589.5L677.938 1605.5L675.938 1623L673.438 1635L677.938 1646L687.938 1658.5V1668.5L694.438 1674L703.938 1694L700.938 1713L709.938 1723.5L721.938 1747L733.438 1770L730.938 1782.5L733.438 1800.5L737.938 1813V1819.5L733.438 1830L737.938 1840L743.438 1835L754.938 1840L760.438 1858L764.938 1865.5V1874L750.438 1883.5L743.438 1880.5L740.438 1865.5L703.938 1824.5V1835L689.938 1819.5L700.938 1798.5L703.938 1786.5L698.438 1770L681.438 1755.5V1747L677.938 1751L662.438 1749L633.438 1715.5H656.938L660.938 1722L669.438 1723.5V1713L662.438 1711L665.938 1704.5L669.438 1691.5L662.438 1671L638.938 1648L636.938 1623L633.438 1610.5V1595.5L630.438 1588.5L634.438 1575L630.438 1567.5V1552.5H650.438L658.938 1547.5H694.438L700.438 1555.5L730.438 1570L762.438 1580L790.438 1597H867.438L874.438 1588.5L880.438 1580H925.438L933.438 1588.5L943.438 1605L958.938 1619V1642L960.938 1650.5L974.438 1661L987.438 1675H995.938L1005.44 1661L1016.94 1650.5L1025.94 1648.5H1044.94L1057.44 1655.5L1067.94 1669.5V1688L1075.44 1699.5L1087.44 1723L1085.44 1747L1089.44 1756.5L1097.94 1765.5L1112.44 1775L1128.44 1776.5L1141.44 1782.5L1137.94 1795L1128.44 1800.5L1123.94 1811L1120.94 1822.5L1116.94 1838.5L1110.94 1855L1108.94 1878.5L1102.94 1887.5V1918L1110.94 1933.5L1106.44 1937V1947L1113.94 1964L1123.44 1982.5L1130.94 2006.5L1139.44 2027L1161.44 2029L1173.94 2044L1180.94 2048L1189.94 2044L1207.44 2036.5H1226.94L1231.44 2033L1237.94 2029H1256.94L1259.94 2036.5L1269.44 2033L1272.44 2023L1283.44 2014.5L1294.94 2001L1307.44 1982.5L1311.44 1959L1316.94 1948.5L1334.94 1937H1356.44L1372.94 1929.5H1391.94L1409.94 1927L1421.94 1933V1952L1398.94 1974.5L1391.94 1990L1386.94 2018.5L1376.44 2044L1372.94 2023L1334.94 2059.5H1280.94L1278.94 2075L1264.94 2079.5L1290.44 2103.5V2114.5L1286.94 2120H1250.94L1234.44 2141.5V2159Z" stroke="#FF6D00" stroke-width="5"/>
<path d="M1131.44 1779.5L1143.94 1784.5L1138.44 1757.5L1146.44 1736L1159.44 1715.5L1176.44 1703.5L1186.94 1687.5L1193.94 1693L1244.44 1665.5L1265.44 1650.5L1288.44 1645.5L1300.94 1654.5H1318.94L1331.94 1650.5L1347.44 1665.5L1358.44 1670H1375.94L1378.44 1657.5L1392.94 1665.5L1395.94 1674.5H1404.44L1410.44 1665.5L1395.94 1654.5L1402.94 1647L1392.94 1641.5L1382.44 1629H1392.94L1407.94 1633L1438.44 1627.5L1448.44 1624.5L1456.94 1633L1469.94 1626L1488.94 1624.5L1495.94 1629H1515.44L1517.94 1644L1530.94 1654.5L1535.44 1652.5L1551.94 1638L1561.94 1636L1571.94 1644L1578.44 1658L1590.44 1669.5L1592.94 1686.5L1584.94 1691.5L1582.94 1705.5L1590.44 1718L1582.94 1727L1590.44 1738L1594.94 1757.5L1603.44 1776.5L1609.44 1797L1626.94 1810.5L1637.44 1802.5L1645.94 1780L1653.44 1752L1651.44 1725.5V1700L1646.44 1678.5L1642.44 1664.5L1640.44 1624.5L1646.44 1604.5L1660.94 1578.5L1681.44 1564L1686.44 1558.5L1711.94 1543L1739.94 1519.5L1750.94 1509H1765.94L1772.94 1504.5L1786.94 1490.5L1802.94 1478.5L1827.94 1476.5V1469V1456.5H1843.94L1846.44 1447H1854.94L1850.94 1463.5L1863.44 1453.5L1857.94 1439H1846.44L1850.94 1430H1861.44L1859.94 1405.5L1854.94 1399L1856.44 1385L1865.44 1371.5V1352.5L1870.44 1335.5L1876.44 1331.5L1874.94 1352.5L1878.44 1368.5L1865.44 1385L1866.94 1394L1904.44 1352.5V1341V1316.5L1917.94 1331.5L1922.44 1327L1953.44 1295.5V1284.5V1279.5L1955.94 1275.5L1965.94 1278L1992.44 1275.5L2008.94 1267.5L2020.94 1261.5H2010.94L1988.94 1263.5H1976.44L1995.94 1251.5L2015.94 1253.5L2040.44 1248.5L2059.94 1246H2073.44L2083.44 1240L2086.94 1227.5L2081.94 1234.5H2070.44V1223.5L2066.94 1214L2073.44 1212.5L2075.94 1200.5L2080.44 1192.5L2099.44 1174L2115.44 1162.5L2116.94 1171L2137.44 1156.5L2150.44 1144.5V1156.5H2156.94L2178.94 1145.5L2201.94 1136L2204.44 1127.5L2201.44 1114L2197.94 1102.5L2201.94 1083L2210.94 1069.5V1048H2199.44L2191.94 1052.5H2182.94V1046L2174.94 1048L2156.94 1062L2142.94 1080L2108.44 1115H2102.44L2095.94 1117.5L2083.44 1127.5H1986.44L1952.94 1146.5L1944.44 1164L1926.94 1183.5L1909.44 1187.5H1891.44L1888.94 1183.5H1858.44L1855.44 1191.5L1850.94 1203L1822.44 1220L1761.94 1244.5L1737.44 1249L1725.94 1245.5L1713.44 1242.5V1236.5L1722.94 1227L1740.44 1207H1748.94L1755.94 1198L1757.94 1183.5L1762.94 1162.5L1757.94 1159.5L1751.94 1161L1738.94 1172L1730.44 1175.5L1725.94 1170.5L1728.94 1164.5L1751.94 1148.5L1757.94 1137L1764.44 1124.5L1761.94 1116.5L1747.44 1105.5H1726.94L1725.94 1116.5H1717.94L1694.94 1129L1681.44 1135.5L1665.44 1158L1654.94 1172L1653.44 1193L1650.44 1208.5L1610.94 1242.5L1603.44 1244L1598.44 1236.5L1596.94 1219L1603.44 1208.5L1610.94 1187.5L1628.94 1161L1645.44 1143.5V1135.5L1630.44 1143.5V1135.5L1669.94 1102.5L1688.94 1104.5L1702.94 1097L1720.44 1090L1735.44 1093.5L1761.94 1095.5L1755.94 1084L1739.94 1070.5H1720.44L1699.44 1077H1688.94L1681.94 1075.5L1673.94 1064.5H1654.94V1050.5L1601.44 1075.5L1587.94 1072.5L1591.44 1059L1567.94 1072.5L1557.44 1070.5L1554.94 1064.5L1642.94 1024.5H1628.44L1613.94 1018.5L1599.94 1023H1591.44L1579.44 1015.5L1569.44 1005.5L1557.44 1003L1554.94 1008L1544.94 1010L1525.44 1003L1522.44 996L1528.44 986.5L1522.44 980.5L1518.44 985L1512.44 993H782.438L778.438 1002.5L775.438 1019.5L762.938 1039L736.438 1057.5V1046L760.938 1024.5L750.938 1022.5L730.438 1016H713.438L707.438 1024.5V1039L700.438 1054.5V1068.5L694.938 1071.5L688.938 1079.5L703.438 1088.5H684.438L659.438 1128.5L634.438 1161L600.438 1193.5L590.438 1210L581.938 1249L549.938 1284V1289.5L555.438 1296.5V1311L549.938 1313L542.438 1335L549.938 1347V1370L562.938 1361.5V1381.5L549.938 1378V1389.5L560.938 1404L549.938 1412.5V1424.5L560.938 1445.5L567.438 1464L558.938 1484L583.938 1489L594.938 1500H611.438V1509.5L618.938 1512.5L630.938 1526.5V1553L697.938 1549.5V1555.5L767.438 1586.5L790.438 1597H868.938L881.438 1578.5L929.938 1582L943.438 1602.5L959.438 1617V1649L987.438 1675.5H996.438L1018.44 1647H1050.94L1060.44 1657L1071.44 1675.5V1698.5L1088.44 1725.5V1760L1108.94 1772.5L1131.44 1779.5Z" stroke="#FF6D00" stroke-width="5"/>
<path d="M310.938 683.5L309.938 683.796M309.938 683.796L275.438 694L206.438 720.5L180.438 745.5L230.438 735.5L289.938 707.5L309.938 683.796ZM992.438 345.5L959.938 327.5H875.438L793.938 316L800.438 308.5H751.438V302.5L719.438 316L734.438 291L658.438 316L644.438 308.5L572.938 327.5L559.438 323L462.438 368.5H402.438L378.938 385L397.438 404L388.938 422H402.438L397.438 444.5L345.438 449.5L369.938 430.5L303.938 439.5V449.5L275.938 444.5L269.438 454L223.438 461.5L231.438 474L219.438 498.5H284.438L289.938 503.5L355.438 487L330.438 503.5L309.938 523.5L269.438 532.5L262.938 523.5L244.938 532.5L219.438 543V532.5L175.438 555L102.438 579.5L95.4375 597.5L130.938 606V618L106.438 611.5H69.9375L78.9375 634.5L114.438 638L162.438 611.5L114.438 650.5L75.9375 681.5L126.938 663.5L144.938 676L150.938 686.5L180.438 670L175.438 676L223.438 670L175.438 694L150.938 715.5L121.438 720.5L75.9375 735.5L25.4375 756L30.4375 774L126.938 741L251.438 694L303.938 670L289.938 663.5L364.438 629L452.438 597.5L467.938 611.5H427.938L369.938 645.5L355.438 650.5V663.5L402.438 650.5L431.938 638H478.938L509.438 606.5H538.938V620L559.438 638H626.438L634.438 645.5H658.438V650.5L670.938 663.5L681.438 694L670.938 801L721.938 776.5L734.438 806L785.438 759L762.438 736L775.438 677.5L767.438 645.5L702.938 663.5L697.938 650.5L692.938 629H649.438L815.438 484.5L992.438 345.5ZM43.9375 641.5L55.9375 624.5H32.9375L30.9375 627L5.9375 630.5L23.9375 645.5L27.9375 641.5H43.9375ZM72.9375 546L107.938 534.5L85.9375 527L72.9375 546Z" stroke="#FF6D00" stroke-width="5"/>
<path d="M755.438 987.5L751.938 1014.5L730.938 1010.5L712.438 1005L730.938 987.5L712.438 995L696.938 987.5L689.438 962.5L672.438 957V940L682.938 934L707.938 940L738.938 952.5V975.5L755.438 987.5Z" stroke="#FF6D00" stroke-width="5"/>
<path d="M780.938 972L776.438 991.5L1509.44 992.5L1528.94 1005H1552.94L1581.44 1021.5H1606.94L1632.44 1026L1702.44 992.5L1736.94 1004L1739.94 1026H1766.44L1755.94 1077.5L1810.94 1087L1843.44 1095.5L1855.94 1130L1843.44 1143.5L1827.44 1136.5L1814.94 1114L1810.94 1139.5L1794.44 1155.5L1784.44 1186L1730.44 1216.5V1229L1769.94 1212L1814.94 1203.5L1855.94 1195V1186H1834.94L1850.94 1168L1900.94 1159L1947.94 1149L1982.94 1126.5H2080.94L2113.94 1108.5L2166.94 1051.5H2206.94V1080L2196.44 1108.5L2206.94 1126.5L2281.44 1093.5L2264.44 1113.5H2306.44L2287.44 1123.5L2254.94 1131.5L2215.44 1153L2220.94 1176.5H2240.44L2291.44 1140.5L2367.94 1113.5L2356.94 1103.5L2331.44 1098H2306.44L2302.94 1084H2291.44L2287.44 1055H2277.94L2314.44 1026.5L2277.94 1038.5L2274.94 1032L2249.44 1026.5L2281.44 1019.5L2291.44 1023.5L2318.44 1016L2331.44 998.5L2322.94 984H2287.44L2274.94 987.5L2206.94 1009.5L2149.44 1055L2113.94 1068L2190.94 1009.5L2224.44 987.5L2249.44 980L2287.44 951H2354.44H2460.94L2505.94 918L2549.44 911L2595.94 892L2603.94 863.5L2610.94 849L2600.44 840.5L2587.94 834L2578.44 847L2574.44 838.5L2581.94 834V823L2572.44 821.5L2498.44 850.5L2502.44 838.5L2585.44 812.5L2580.94 803.5L2558.44 800.5L2551.94 791H2527.44L2525.44 775L2512.44 764L2502.44 745L2521.44 728.5L2505.44 715.5L2521.44 708.5L2512.44 678L2501.44 617L2490.44 626.5L2434.94 681L2433.44 672L2396.44 690.5L2383.44 687L2370.94 673L2358.94 659L2367.44 636.5L2393.94 603L2342.94 601.5L2352.44 590L2341.44 576L2311.94 558.5L2295.94 566.5H2265.44L2247.44 555H2226.94L2206.44 572V586L2183.44 606V634L2166.44 648.5L2125.94 677L2149.44 695.5V729.5L2111.44 772L2045.44 798.5L2023.44 805.5L2025.44 823.5L2021.44 837.5L2012.44 854.5L2010.44 882.5L1994.44 895.5L1982.94 911.5L1972.94 902L1958.44 919.5L1943.94 917L1942.44 902L1930.44 882.5L1923.44 863.5L1943.94 835L1946.94 816L1964.94 790L1895.94 787.5L1878.94 770L1850.94 764L1848.44 753L1832.94 735.5L1812.44 730L1792.44 721.5L1762.44 730L1741.44 732.5L1756.94 719.5L1762.44 698.5L1768.94 674.5L1734.94 669.5L1780.44 621.5L1834.44 582L1886.44 551.5L1930.44 545L1936.44 532L1890.94 515L1952.44 525.5L1976.94 515H2000.94L2064.94 484.5L2048.44 470H2025.94L1995.44 449H2020.44L2064.94 470L2109.44 441L2149.94 443.5H2171.44L2157.94 426L2171.44 433L2184.94 443.5L2254.44 413.5L2248.94 397L2255.44 378L2282.44 369.5L2288.44 357.5L2274.94 349.5L2225.44 340L2203.44 349.5V369.5H2187.94L2178.94 378L2164.94 385L2149.94 397V385L2139.44 397L2133.94 409.5L2111.94 416L2105.44 397V385L2133.94 378L2127.94 357.5H2111.94L2084.44 378L2071.44 381.5L2078.94 357.5L2094.94 349.5L2084.44 340L2068.44 345L2062.44 337.5L2087.94 327L2081.94 314L2087.94 290.5L2078.94 287.5L2071.44 275.5L2052.44 283.5L2037.94 294.5L2023.44 298L2004.44 307L2011.44 314L1991.94 319L1985.94 334L2011.44 345L1985.94 369.5L2004.44 374L1981.94 388L1942.94 393.5L1926.44 416L1916.94 409.5L1926.44 397V388L1923.44 381.5H1942.94L1965.94 369.5V357.5L1942.94 337.5L1913.94 352.5H1896.44L1886.44 366L1913.94 374L1893.94 381.5L1867.44 400L1851.44 397H1784.44L1767.44 393.5L1734.94 381.5L1675.94 388L1648.44 416L1629.94 388L1581.94 400L1532.44 397L1507.94 393.5L1546.94 381.5L1542.94 369.5L1519.94 366H1484.94L1464.44 353.5H1445.94L1426.44 342L1394.94 339.5L1371.44 353.5H1354.44L1360.44 345L1371.44 329.5H1366.44L1330.44 353.5H1319.94L1312.94 342L1321.44 327L1310.94 315L1283.94 337L1265.44 339.5L1235.44 342L1208.94 355.5L1197.44 352L1151.44 362L1259.44 327L1217.44 337L1160.94 346L1105.44 365L1141.44 346L1100.44 352L1083.94 371L1077.94 368L1046.94 365L1029.94 346H991.438L655.938 627.5H680.438L699.938 624.5L694.938 636.5V674L771.938 641V665.5L775.438 687L767.938 715L758.938 741L783.938 763.5L748.938 791.5L736.438 820L722.938 824V842V860.5L707.438 874.5L715.438 886L748.938 879.5L736.438 894L709.938 907L707.438 920.5L722.938 933L736.438 944H767.938L748.938 972H780.938Z" stroke="#FF6D00" stroke-width="5"/>
<path d="M1678.44 242.5H1700.44L1703.94 246.5L1671.44 260.5L1690.44 264L1720.44 249L1745.44 258.5L1725.44 267.5L1765.44 264V246.5L1792.44 254L1788.94 267.5L1775.44 292L1796.94 283L1800.94 270.5L1834.94 238L1866.94 242.5L1862.94 231H1916.44L1871.94 258.5L1859.44 273.5L1851.44 298.5H1841.44L1840.44 315.5L1884.94 333.5L1866.94 343.5L1840.44 339.5L1844.44 361.5L1813.94 366H1775.44L1741.44 349.5L1717.44 361.5L1658.44 374L1564.94 377.5L1578.44 357L1532.94 354.5L1519.94 345V334.5L1655.94 329.5L1651.94 318.5H1546.44L1532.94 312.5L1537.44 303L1620.44 296.5V287.5H1542.44L1578.44 273.5L1584.44 267.5L1678.44 242.5Z" stroke="#FF6D00" stroke-width="5"/>
<path d="M1932.94 269L1923.94 258.5L1944.94 246L1954.94 258.5H1975.44L1989.94 246L1972.44 233.5L1993.44 228.5L2067.44 222.5L2076.94 228.5L2028.44 249H2063.94L2028.44 279.5L2000.44 289.5L1993.44 284.5L1985.94 296.5L1959.94 299V284.5L1944.94 269H1932.94Z" stroke="#FF6D00" stroke-width="5"/>
<path d="M2152.94 259L2224.44 226L2126.44 222L2104.44 230L2072.94 269L2086.94 277.5L2108.94 266V256L2152.94 259Z" stroke="#FF6D00" stroke-width="5"/>
<path d="M1859.94 197.5H1974.44L1988.94 190.5L1970.44 167L1932.94 173.5L1943.94 146L1894.44 173.5H1849.94L1792.44 154.5L1828.94 128.5L1792.44 133L1755.94 139L1627.94 164.5L1745.44 203.5L1775.94 213L1859.94 197.5Z" stroke="#FF6D00" stroke-width="5"/>
<path d="M1930.94 102.5L1880.94 123.5L1888.44 136.5L1934.44 134L1989.94 111.5V102.5H1930.94Z" stroke="#FF6D00" stroke-width="5"/>
<path d="M2419.94 551.5L2490.94 581.5L2511.44 596.5L2515.94 581.5L2494.94 565L2486.94 551.5L2461.94 522L2486.94 530.5L2494.94 541.5L2519.94 550L2522.94 561H2539.44L2533.94 551.5L2543.94 534L2557.44 515.5V495L2539.44 484L2528.44 463L2543.94 441.5L2568.94 447L2573.94 469.5L2592.44 479.5L2603.44 484L2621.44 459.5L2646.94 453L2682.44 433.5L2640.94 411.5L2577.44 375V361.5L2613.44 355V334.5L2592.44 315.5L2553.94 304.5V289H2528.44L2505.44 274.5V266L2461.94 252.5L2490.94 247L2473.94 233L2416.44 227.5L2406.44 235.5L2408.94 252.5H2430.44L2435.94 262.5L2419.94 274.5L2398.44 270L2371.44 280.5L2363.44 274.5L2398.44 258L2393.94 233L2354.94 227.5L2279.94 258L2295.94 280.5L2271.44 274.5L2274.44 289L2261.94 294.5L2248.94 280.5L2265.44 266V252.5L2326.94 227.5L2255.94 233L2195.44 262.5L2155.44 294.5H2200.44L2203.94 304.5H2155.44L2173.94 334.5H2214.44H2279.94L2329.94 348.5L2363.44 334.5V318.5L2393.94 342L2403.94 361.5L2382.44 371.5L2393.94 386.5H2371.44L2350.94 392L2340.44 415H2376.94L2424.44 371.5L2446.94 386.5L2452.44 411.5L2430.44 423.5L2408.94 436.5L2376.94 447L2387.94 466.5L2350.94 469.5L2299.94 466.5L2255.94 490.5L2271.44 507.5L2299.94 500H2363.44L2376.94 526L2387.94 551.5H2419.94Z" stroke="#FF6D00" stroke-width="5"/>
<path d="M2118.94 453L2195.44 519L2156.94 522.5L2131.44 506.5L2061.94 539.5L2064.94 519L2026.44 522.5L2118.94 453Z" stroke="#FF6D00" stroke-width="5"/>
<path d="M2100.94 547H2131.44L2097.44 572L2074.44 563L2100.94 547Z" stroke="#FF6D00" stroke-width="5"/>
<path d="M2147.44 576.5L2172.94 558.5L2181.94 563L2166.44 591.5L2147.44 576.5Z" stroke="#FF6D00" stroke-width="5"/>
<path d="M2148.94 156.5L2101.44 195.5H2060.44L2041.44 181.5H2022.44L1995.94 169L2018.44 133.5L2026.44 119.5L2041.44 133.5L2033.94 153L2052.44 169L2067.94 153L2087.94 172V148.5L2148.94 156.5Z" stroke="#FF6D00" stroke-width="5"/>
<path d="M2143.44 124H2168.44L2175.44 109L2183.44 103L2157.44 88.5L2143.44 92V84H2091.44L2087.94 92L2101.44 103L2076.94 109L2110.44 124L2125.44 115.5L2143.44 124Z" stroke="#FF6D00" stroke-width="5"/>
<path d="M2191.94 192L2175.44 206.5L2139.44 202.5L2125.44 192L2139.44 181.5L2183.44 176.5L2191.94 192Z" stroke="#FF6D00" stroke-width="5"/>
<path d="M2175.44 145.5L2191.94 172L2202.94 162L2233.94 156.5L2243.44 145.5L2199.44 142L2175.44 145.5Z" stroke="#FF6D00" stroke-width="5"/>
<path d="M2217.94 133.5H2271.94L2278.44 124L2253.44 119.5L2264.94 109L2243.44 98.5H2212.44L2199.44 115.5L2217.94 133.5Z" stroke="#FF6D00" stroke-width="5"/>
<path d="M2246.94 153L2283.44 148.5L2310.94 162L2288.44 181.5H2314.94L2353.44 187L2393.94 176.5L2446.94 172L2485.44 181.5L2453.94 206.5H2377.44H2264.94H2239.44L2212.44 195.5L2236.12 181.5L2233.94 162L2246.94 153Z" stroke="#FF6D00" stroke-width="5"/>
<path d="M2476.94 162.5H2507.94L2540.94 155.5L2560.44 146L2540.94 133H2570.94L2579.44 120H2617.44L2656.44 103.5L2690.44 84L2718.94 80L2761.94 73.5L2848.94 53.5L2927.44 37L3011.94 23V11.5H2931.94L2920.94 2.5H2675.44L2641.44 11.5L2617.44 19L2579.44 11.5L2540.94 19L2485.44 29H2434.44L2447.44 37L2458.94 61.5L2421.44 51.5L2404.44 37H2375.94L2334.44 51.5L2296.44 61.5L2284.94 73L2302.94 97.5L2334.44 116.5H2404.44L2380.94 125.5L2387.44 138.5L2343.44 142.5L2319.44 151V162.5H2399.44H2476.94Z" stroke="#FF6D00" stroke-width="5"/>
<path d="M1497.44 932.5V947.5L1526.94 920V889.5L1539.94 859V840L1531.94 831.5H1514.94L1495.94 853.5L1501.44 859L1495.94 866.5L1497.44 898L1510.94 889.5L1513.44 901.5L1519.94 905.5L1497.44 932.5Z" stroke="#FF6D00" stroke-width="5"/>
<path d="M1459.94 541.5L1495.44 549L1474.94 554.5L1455.94 564.5H1428.94L1379.44 590.5L1348.44 594.5L1325.94 607L1290.44 614.5L1262.94 609L1244.44 594.5L1259.94 598.5L1281.94 594.5L1305.94 584.5L1331.94 576.5L1334.44 564.5L1325.94 549L1353.94 558L1361.44 572L1395.94 569L1459.94 541.5Z" stroke="#FF6D00" stroke-width="5"/>
<path d="M1381.94 442L1406.94 430L1411.44 436.5L1392.44 450L1366.94 465L1351.44 457H1336.44L1325.44 473.5L1275.94 489.5L1270.94 484L1315.94 465H1294.94L1265.44 482L1224.94 478.5L1272.44 452H1306.44L1301.94 444.5L1245.44 452H1224.94L1218.94 444.5L1238.94 442L1268.44 436.5L1323.44 430L1375.44 419L1387.94 423L1351.44 436.5L1345.94 442H1381.94Z" stroke="#FF6D00" stroke-width="5"/>
<path d="M2562.44 909.5L2595.44 905.5L2583.94 917.5L2539.94 965.5L2558.44 958.5H2572.94L2558.44 970L2590.94 975.5L2616.94 981L2604.44 997.5V1009L2629.44 1004L2599.44 1027.5L2620.94 1021.5L2629.44 1039L2599.44 1075.5L2569.44 1061.5L2590.94 1036L2579.94 1039L2546.94 1061.5H2524.94L2558.44 1039L2528.94 1043.5L2444.94 1036L2478.94 997.5L2507.44 970L2562.44 909.5Z" stroke="#FF6D00" stroke-width="5"/>
<path d="M2362.94 961.5L2401.44 987H2362.94L2335.44 965.5L2362.94 961.5Z" stroke="#FF6D00" stroke-width="5"/>
<path d="M2373.44 1107.5L2364.94 1099.5L2402.94 1058L2409.94 1066L2402.94 1083.5L2416.94 1088L2391.94 1107.5H2373.44Z" stroke="#FF6D00" stroke-width="5"/>
<path d="M2315.44 1088L2335.94 1094L2361.94 1079.5L2332.44 1078L2313.44 1072V1056.5L2295.94 1069.5L2315.44 1088Z" stroke="#FF6D00" stroke-width="5"/>
<path d="M1571.94 260.5L1676.44 240L1687.44 229.5L1666.94 214L1623.44 218L1601.44 209L1531.44 214L1519.94 229.5L1411.94 277L1435.94 282V302.5L1463.44 295.5H1498.44L1571.94 260.5Z" stroke="#FF6D00" stroke-width="5"/>
</svg>
