<svg width="2235" height="1508" viewBox="0 0 2235 1508" fill="none" xmlns="http://www.w3.org/2000/svg">
<path d="M1621.7 815.768L1610.2 825.768L1608.2 829.268V847.768H1603.7L1585.2 864.268H1579.2L1572.2 869.768V879.268L1579.2 883.768L1587.2 890.768L1590.2 903.268L1597.2 910.268L1603.7 923.268V941.268L1605.7 950.768L1599.7 963.268H1590.2L1577.2 968.768L1568.2 976.768L1560.2 978.268L1549.7 975.268L1556.2 968.768V959.268L1552.7 947.768L1560.2 938.768L1552.7 925.768H1562.2V919.268L1554.7 916.768V910.268M1554.7 910.268L1560.2 908.768L1565.7 899.268H1582.7L1587.2 890.768M1554.7 910.268L1539.7 908.768L1526.7 901.268L1534.7 890.768L1539.7 876.268L1531.7 869.768L1520.2 867.768M1520.2 867.768L1542.2 849.268L1549.7 845.768L1556.2 836.768L1558.2 829.268L1565.7 826.768L1568.2 833.768L1582.7 836.768L1585.2 831.768L1582.7 823.768L1594.7 821.768L1603.7 814.268H1605.7L1611.2 800.768L1616.45 808.268M1172.7 1187.27L1184.2 1182.27L1189.2 1188.27L1207.7 1183.77L1224.7 1173.77L1230.7 1177.77L1246.2 1182.27V1188.27V1196.27L1257.2 1200.77H1269.7L1296.7 1205.27L1293.2 1213.77L1296.7 1224.27L1307.7 1222.77L1304.7 1215.77L1307.7 1207.27H1315.2L1330.2 1199.27L1334.7 1201.27L1353.2 1196.27L1355.7 1183.77L1365.2 1191.77L1381.2 1182.27H1398.2L1406.2 1169.77L1419.7 1164.77L1427.2 1153.77L1434.2 1155.27L1438.7 1139.77L1449.7 1138.27L1447.2 1117.27H1456.7V1111.27L1463.2 1109.27L1468.7 1092.77L1481.7 1086.27L1478.2 1080.27L1484.7 1075.27V1057.27L1468.7 1050.77L1486.7 1039.77L1475.7 1026.27L1486.7 1028.27L1478.7 1013.77L1468.7 1007.77V1000.77L1461.2 976.768L1443.2 967.268L1458.2 942.268H1462.2L1467.2 934.268L1484.7 925.768L1496.2 927.268V914.768H1478.2L1472.7 908.268H1462.2L1452.2 921.768L1439.2 918.768L1443.2 911.268L1439.2 902.768H1425.2L1416.7 893.268L1422.2 882.268H1440.2L1446.7 869.768L1462.2 862.768L1474.2 845.768L1490.7 853.768L1476.2 873.268L1481.7 877.268L1478.2 888.768L1503.7 869.768L1520.2 867.768M1621.7 815.768L1632.2 814.268L1635.7 802.268L1643.2 795.268H1647.7L1649.2 805.268L1660.7 810.768L1681.2 800.768L1695.7 787.768L1704.2 772.268L1719.7 755.268L1739.2 731.268L1745.7 712.768L1755.7 705.268L1759.2 693.768L1773.7 677.768V667.768L1778.7 649.268V613.768L1789.7 594.768L1785.7 580.768V568.768L1789.7 557.768L1781.2 555.268L1765.2 533.268L1755.7 535.268L1749.2 533.268L1743.7 546.268L1736.7 551.768L1725.7 549.268L1732.7 541.268L1725.7 538.768L1718.7 546.268V524.268H1698.7L1693.2 517.268L1710.2 503.768L1732.7 480.268L1749.2 458.268L1768.2 440.768L1778.7 428.768V420.268L1797.2 408.268L1804.7 392.768L1838.2 384.768L1854.2 386.768L1866.2 394.768L1871.7 384.768L1886.2 390.268L1892.2 386.768L1907.7 390.268V381.268L1920.2 376.268L1933.2 381.268L1948.7 380.268L1956.2 390.268L1946.7 394.768V403.268L1962.2 398.268L1967.7 400.768L1976.7 394.768L1986.2 396.768L1995.7 394.768L2007.2 391.768L2002.7 380.268L1990.7 383.268L1993.7 367.768L2007.2 353.268L2015.7 347.268L2018.7 337.268L2030.2 330.268V319.768L2042.2 309.268L2071.2 306.768L2074.7 315.268L2087.2 306.768L2083.2 322.268L2076.2 327.768L2080.2 334.268H2084.7V341.768V349.768L2098.7 341.768L2099.2 336.268L2117.2 315.268L2127.7 311.268L2128.7 320.768L2137.7 311.268L2130.7 304.768L2132.2 286.768L2149.2 278.768L2163.7 286.768L2162.2 292.268L2152.7 286.768L2146.7 296.768V309.268L2142.2 317.768L2144.2 328.768L2138.7 336.268V337.268L2114.2 351.768L2100.7 375.268L2076.2 398.268L2050.7 429.768H2042.7V433.268L2030.2 434.768L2035.2 447.268L2015.7 469.268L2011.2 501.768L2018.7 549.268L2026.7 594.268V611.268L2032.2 621.268L2052.2 598.768L2060.2 582.768L2057.7 575.768L2068.7 562.268L2083.2 560.268L2081.7 539.268L2093.2 525.768H2110.2L2116.2 515.268L2110.2 503.768L2114.2 480.768L2124.2 477.268L2127.7 484.268L2133.7 480.768V463.768L2125.2 463.268V444.768L2133.7 434.768L2126.2 428.768L2121.2 434.768L2112.7 425.768L2121.2 404.268L2130.7 398.268V391.768L2135.7 389.768L2133.7 373.768L2144.7 367.768L2158.7 372.268L2162.7 370.268V362.768L2181.2 354.268L2176.7 375.268L2187.2 367.768L2198.2 354.268L2219.2 347.268L2231.7 354.268V8.26758H734.2L732.7 34.7676L740.7 29.2676L746.7 34.7676L755.2 26.7676L766.7 24.7676L794.2 40.2676V52.2676L804.7 69.2676L791.7 74.2676V90.2676L812.7 92.7676L814.7 100.768H791.7L782.7 83.2676L784.7 57.7676L777.7 52.2676L775.2 37.7676L742.2 47.2676L740.7 65.7676L748.2 78.2676L749.7 92.7676L734.2 106.768V121.268L722.7 135.268H711.7L710.2 148.268L679.2 146.768L660.2 138.268L664.7 131.768L673.7 129.268L681.2 141.768L699.2 131.768L693.7 124.768H701.7L703.7 109.268L710.2 111.268V97.2676L719.2 92.7676L722.7 83.2676L721.2 70.7676L729.7 59.2676L710.7 37.7676L714.2 8.26758L631.7 6.26758L644.7 12.7676L643.2 26.7676L649.2 37.7676L658.2 42.2676L654.2 59.2676L652.7 69.2676H644.7V65.7676L629.7 49.2676L627.7 42.2676L604.2 33.2676L576.7 8.26758H518.2L519.7 18.7676L528.2 25.7676L532.7 39.2676L530.7 44.7676L522.2 49.2676H511.7L518.2 55.7676L508.7 65.7676L500.2 63.2676L498.2 55.7676L505.7 49.2676L496.7 38.2676L480.2 42.2676L472.7 55.7676L454.7 51.2676L439.2 59.2676L431.7 72.2676V63.2676L415.2 76.7676L417.7 70.2676H410.2V65.7676L419.2 63.2676L417.7 54.2676L422.2 44.7676L415.2 42.2676L399.2 51.2676L403.2 55.7676L397.2 65.7676L394.2 54.2676L383.2 61.7676H373.7L358.7 78.2676L342.7 85.2676L338.7 92.7676L329.2 91.2676L324.7 100.268V118.268L314.7 127.268L294.2 125.768L288.7 110.768L281.2 108.268L279.7 104.268L288.7 89.2676H306.7V74.7676L290.7 57.2676L268.2 55.7676L253.7 51.2676L268.7 65.7676L268.2 89.2676L261.2 110.768L274.2 124.268V132.268L268.2 143.768V156.768L255.2 143.768L240.2 140.268L225.2 156.768H217.7L196.7 180.768L205.2 198.268L210.2 212.268L200.7 208.768L196.7 214.768L189.7 207.268L173.7 208.768L172.7 201.268L152.7 188.768V198.268L144.7 200.268L155.7 219.768L167.2 218.268L171.7 236.268L163.7 241.768L144.7 233.268L136.7 221.268L127.7 219.768L121.2 215.768L123.2 200.268L115.2 184.768L121.2 180.768V171.268L125.2 167.268L117.7 156.768L100.2 147.768L103.7 143.768L85.2002 124.768L89.7002 118.768L100.2 130.268L103.7 127.768L115.2 133.768V140.268L123.2 136.768L130.7 144.768L152.7 147.768L163.7 155.768H173.7L179.2 156.768L196.2 152.768L211.7 143.768L214.2 136.768L225.2 120.768L218.7 100.268V92.2676L209.7 89.2676L200.7 74.7676L194.2 76.2676L184.2 64.7676H179.2L167.7 52.7676L150.2 35.7676L136.2 27.2676L119.7 25.7676L111.2 18.7676L102.7 25.7676L96.7002 18.7676L83.7002 11.2676H92.7002L88.7002 5.76758L59.2002 2.76758V13.7676H55.7002L47.7002 8.76758V18.7676L35.2002 25.7676L33.2002 35.7676H27.7002L21.7002 41.2676L27.7002 44.2676L21.7002 52.7676L25.2002 69.2676L35.2002 74.7676L45.7002 92.2676L31.2002 120.768L49.2002 169.768L43.7002 173.768L40.2002 188.268L43.7002 191.768L40.2002 193.768V200.768L47.7002 207.268V219.768L55.2002 228.768L51.7002 239.768L45.7002 241.768L63.2002 256.268L71.7002 269.268L66.7002 285.768L36.2002 323.768L11.2002 351.768H16.7002L23.7002 344.768L30.7002 362.268L44.7002 363.268L49.7002 370.268L33.2002 368.768L29.2002 375.268H23.7002L22.7002 377.768H15.2002V383.768L18.2002 387.768L5.2002 404.268L8.7002 425.268L11.2002 432.268L8.7002 433.768L3.7002 443.768L11.2002 445.268L8.7002 462.768H13.7002L18.2002 481.268L25.2002 485.768H36.7002V493.268L48.7002 488.768L61.7002 495.268L64.7002 510.268L57.7002 518.268L76.2002 537.768V546.768H85.2002L90.2002 556.268L81.7002 564.768L72.2002 560.268L66.2002 564.768L73.7002 588.268H83.7002V583.768L105.7 582.268L114.7 594.768L111.2 600.768L112.2 611.768L126.2 610.768L133.2 634.268L141.2 629.768L149.7 638.268L163.2 629.768L171.2 644.768L176.7 640.268L205.2 651.268L206.2 661.268L197.7 665.268L203.7 668.268L197.7 675.268L203.7 682.768L200.2 692.768L189.7 691.768L175.7 699.768L174.7 710.268L187.2 708.768L190.7 711.768L169.7 721.268L178.7 733.268L165.7 742.768V749.768L148.7 747.768V755.768L158.2 754.768L161.7 763.768L172.2 770.268H182.2L202.2 792.768L204.2 789.768H212.2L223.2 796.268L232.7 797.768L239.7 796.268L261.7 806.768L263.7 810.768L281.2 806.768L284.2 810.768L293.7 812.268L294.2 821.268L302.7 824.268L323.7 840.268L338.2 826.768L320.2 801.768L323.7 780.768L308.7 768.768L316.7 761.768L322.2 745.268L340.7 742.768L347.7 736.768V730.043M1621.7 815.768L1616.45 808.268M1269.7 1200.77L1257.2 1213.77H1250.7L1246.2 1226.77L1234.2 1232.27L1230.2 1246.27L1233.2 1252.77L1242.7 1261.77L1246.2 1271.27L1269.7 1291.77L1279.7 1305.77L1288.7 1336.77L1287.2 1364.77L1282.7 1371.77L1268.2 1377.27V1380.77L1251.2 1384.77L1244.7 1393.77V1399.27L1230.7 1404.27L1221.7 1415.27L1216.7 1410.77V1395.77L1220.7 1391.77L1211.7 1385.77M1211.7 1385.77L1201.7 1382.77L1193.2 1377.27L1187.7 1375.77L1186.7 1364.77L1185.45 1356.77M1211.7 1385.77L1226.7 1375.77L1239.2 1380.77L1233.2 1366.77L1242.7 1364.77L1250.7 1358.27L1262.7 1348.77L1255.45 1320.27M1226.7 1322.27H1193.2L1178.2 1333.77L1184.2 1348.77L1185.45 1356.77M1226.7 1322.27L1233.2 1327.27L1244.7 1318.27L1250.7 1322.27L1255.45 1320.27M1226.7 1322.27L1230.2 1320.27L1228.2 1296.77H1222.7L1216.7 1283.27L1218.7 1273.27L1203.7 1257.27H1193.2L1181.2 1264.77L1174.2 1258.77L1158.2 1271.27L1162.2 1235.77L1150.2 1237.27V1226.77L1145.7 1224.27H1143.7M1172.7 1187.27L1181.2 1201.27L1186.7 1196.27L1187.7 1207.27L1193.2 1215.77H1207.7L1218.7 1226.77L1205.7 1232.27L1203.7 1240.77L1224.7 1252.77V1258.77L1237.2 1268.27L1246.2 1285.27L1257.2 1291.77V1301.77L1260.2 1305.77V1318.27L1255.45 1320.27M1018.55 1209.97L1022.7 1205.27L1027.2 1209.77V1196.27L1032.7 1193.77L1037.2 1162.27L1050.7 1164.27L1058.2 1150.77V1137.27L1068.2 1115.77L1087.7 1103.77L1094.2 1110.27V1097.27L1101.7 1095.27L1100.2 1086.77L1103.2 1082.77L1111.7 1087.77L1121.7 1112.27V1129.27L1108.7 1140.27L1103.2 1152.27L1104.7 1165.27L1123.7 1157.77V1176.77H1134.7L1130.7 1191.77L1140.2 1193.77L1145.7 1203.77H1159.2L1161.2 1208.27L1169.7 1209.77L1165.7 1189.27L1172.7 1187.27M1143.7 1224.27H1134.7L1128.2 1229.77L1119.7 1235.77L1110.2 1232.27L1104.7 1252.77H1100.7L1119.7 1291.77V1299.77L1114.2 1311.77L1128.2 1333.77L1134.7 1364.77L1128.2 1375.77L1119.2 1387.63L1117.2 1390.27V1395.77L1114.2 1402.27V1420.27L1119.7 1418.27L1134.7 1433.27L1142.7 1449.77L1145.7 1445.27L1156.2 1451.77V1458.27L1168.7 1459.77L1176.2 1449.77L1167.2 1441.77H1156.2L1149.7 1430.77L1145.7 1418.27L1140.7 1410.77L1137.2 1404.27L1129.7 1402.27L1128.2 1391.77L1140.7 1360.27L1142.7 1336.77H1156.2L1154.2 1348.77H1171.7L1185.45 1356.77M1143.7 1224.27L1145.7 1215.77H1152.7L1152.2 1208.27L1159.2 1203.77M1119.2 1387.63L1122.7 1364.77L1119.2 1355.27L1117.2 1341.77L1111.2 1335.27L1110.2 1325.77L1107.2 1316.27L1104.7 1299.77L1093.7 1274.27L1090.2 1287.27L1082.2 1289.27L1069.2 1299.77L1049.2 1295.77L1057.7 1274.27L1051.7 1255.27L1040.7 1235.77L1032.7 1232.27L1022.7 1218.27L1018.55 1209.97M318.7 1506.77L315.7 1492.77L335.2 1466.77L349.7 1434.77L361.2 1419.77L364.2 1410.27L373.2 1402.27L371.2 1387.27L377.7 1383.77L375.7 1376.27L377.7 1363.27L369.2 1359.77L355.7 1369.77H335.2L331.2 1373.77H315.7L304.7 1379.27L294.7 1376.27L282.7 1385.27L266.2 1383.77L252.7 1366.77H244.7L255.2 1359.77L249.2 1350.27L244.7 1346.27L229.2 1327.77L214.2 1312.27H205.7L200.2 1307.27L191.7 1301.27L190.2 1281.77L179.2 1261.77L162.2 1250.27L158.2 1215.77L150.2 1192.27L135.2 1181.27L131.7 1162.77H135.2L128.7 1156.27L107.2 1115.27L101.2 1095.27L88.7002 1083.27L84.2002 1059.77L93.2002 1070.77L97.2002 1083.27L112.2 1095.27L119.7 1067.77H124.2L119.7 1088.27H124.2L158.2 1139.77L162.2 1156.27L179.2 1166.27L188.2 1184.27L186.7 1201.77L196.7 1219.77L214.2 1234.77L232.2 1267.27L244.7 1285.27L242.7 1300.27L252.7 1327.77V1342.27L261.2 1350.27L280.2 1346.27L288.2 1338.27H304.7L324.7 1327.77H339.2L347.2 1316.77L377.7 1309.27L392.7 1299.77V1294.27L400.2 1288.27L414.7 1282.27L437.2 1279.77L446.2 1265.27H457.7L465.2 1249.27L481.7 1245.77V1230.27H488.7L481.7 1219.27L488.7 1223.77L497.7 1210.27L507.2 1205.77L512.7 1191.27L491.7 1166.77L488.7 1170.27L468.7 1159.77L457.7 1145.27V1126.27L437.2 1141.77L425.7 1159.77L406.7 1156.77L386.7 1159.77L384.7 1155.27H378.7L386.7 1143.27V1128.77L376.2 1121.27L370.7 1132.27V1148.27L360.2 1132.27L358.2 1114.77L349.2 1109.27L347.7 1102.77L339.7 1098.27L334.7 1080.77L327.2 1067.77L331.7 1061.27V1056.27H342.7V1051.27L350.2 1058.77L360.2 1053.77L362.2 1058.77L373.2 1073.77L376.2 1083.27L382.2 1094.77L397.7 1098.27L405.2 1106.77L414.7 1114.77H425.7L431.2 1118.77L443.2 1110.77L463.2 1106.77L472.2 1118.77V1132.27L491.7 1134.27L497.7 1137.27H507.2L539.2 1145.27M1616.45 808.268L1628.7 803.768L1632.2 789.768V775.768L1626.2 762.768L1641.2 750.768L1657.7 756.768L1660.7 755.268V746.268L1667.2 742.768L1675.2 718.268L1677.2 705.268L1687.2 696.768L1682.7 687.768L1688.7 680.268L1657.7 687.768L1653.2 696.768H1626.2L1622.2 687.768V669.268H1613.7L1602.2 655.768L1596.2 657.768L1593.2 651.768L1575.2 650.268L1573.7 636.268L1569.7 635.268V621.268L1562.7 614.268L1557.7 586.768L1544.7 564.268H1530.7L1510.2 549.268L1476.7 557.768H1467.7L1454.2 572.268V577.268H1467.7V594.768L1454.2 600.768L1440.7 631.768L1445.7 640.768L1436.7 643.268L1423.2 651.768L1403.7 645.268M1403.7 645.268L1385.2 687.768L1390.2 696.768L1405.7 691.268L1414.2 698.268L1423.2 687.768L1430.2 691.268L1452.2 708.768L1454.2 718.268L1452.2 723.768L1430.2 718.268L1419.7 723.768H1414.2V727.768L1402.2 729.768L1396.2 742.768L1385.2 750.768H1369.7L1357.2 762.768L1329.2 756.768L1320.2 770.268L1329.2 787.768L1291.2 814.268L1248.2 815.768L1220.2 833.768L1213.7 831.768V825.768H1193.7L1152.7 807.268L1128.7 810.768L1085.7 807.268L1066.7 777.768L1068.7 773.268H1060.2L1035.2 756.768L997.2 753.768L993.2 742.768L1001.2 736.268V718.268L984.2 691.268L978.2 687.768H967.2L952.2 675.768L954.7 670.768L950.2 668.768V661.768M1403.7 645.268L1398.7 640.768L1385.2 645.268L1367.2 634.268L1346.7 645.268V651.768L1311.2 661.768L1277.7 658.768L1264.7 640.768L1253.7 643.268L1247.2 631.768L1227.2 629.268L1200.7 640.768L1181.2 631.768L1176.7 609.768L1138.7 600.268V593.768L1126.7 585.768L1108.7 606.268V620.768L1115.7 629.268L1111.7 640.768L1097.2 648.268L1080.2 640.768L1073.7 645.268L1055.7 638.768L1051.7 625.768L1033.7 624.768L1027.2 625.768L1022.7 620.768L986.2 638.768V643.268H978.2L973.7 655.768H957.2L950.2 661.768M950.2 661.768L944.7 662.934M1018.55 1209.97L1016.7 1206.27L1013.7 1194.77L1011.7 1186.27L1006.7 1183.27L1002.2 1186.27L996.2 1175.77L994.2 1180.77L998.7 1189.27L994.2 1196.27L971.7 1202.77H970.7M642.45 1168.02L647.2 1172.77L654.2 1179.77L665.2 1182.77L673.7 1179.77L669.7 1187.27L658.2 1190.27V1195.77L669.7 1210.27L684.2 1218.27L701.7 1212.77L705.2 1205.77L709.7 1192.77L712.7 1205.77L716.2 1220.27L712.7 1228.27L716.2 1240.77V1252.77L723.2 1284.77L734.2 1310.27L742.7 1326.27L746.7 1347.77L753.2 1362.77L762.7 1371.27L769.7 1395.77L774.7 1410.27L784.2 1420.27H797.7L803.7 1407.27L814.7 1404.77L811.7 1400.77L818.7 1388.77H825.7V1362.77L831.7 1352.77L833.7 1335.27L829.7 1308.27L833.7 1301.77L841.7 1299.77L851.2 1290.27L863.7 1287.27V1279.77L874.7 1271.77L888.7 1260.77L901.7 1246.27L908.2 1236.77L929.2 1230.27L937.2 1217.77L935.7 1211.77L938.7 1205.27L949.2 1202.77L954.7 1197.27L957.7 1202.77H970.7M642.45 1168.02L637.7 1163.27H630.7L626.7 1147.77L617.7 1145.77V1140.77L610.2 1137.27L587.7 1140.77H572.2H549.2L541.2 1145.77L539.2 1145.27M642.45 1168.02L645.7 1163.27L654.2 1162.27V1155.27L673.7 1159.27L681.7 1155.27L685.2 1158.27L689.7 1153.77L684.2 1133.27L673.7 1128.27V1117.27L662.7 1114.27L673.7 1093.27L681.2 1090.27L687.2 1098.77L702.2 1093.27L708.7 1078.27L719.7 1074.77L725.7 1055.27L733.2 1053.27L734.2 1045.27L745.7 1036.77L742.2 1030.77L744.2 1020.77H754.7V1012.77L740.2 1002.27L736.7 995.768V982.768L731.2 973.768L734.2 962.268L753.2 966.268L754.7 973.768L780.2 964.268L795.2 952.768M842.7 1053.27L834.2 1059.27L829.7 1078.27L889.2 1105.77L899.7 1103.77L909.2 1114.27L918.2 1112.77L927.2 1118.77H958.2M970.7 1202.77L969.7 1174.27L962.2 1164.27L964.2 1155.27L954.7 1149.27L961.2 1141.27L968.7 1139.77L954.7 1130.27L958.2 1118.77L954.7 1105.77L956.2 1092.27L943.7 1093.27L936.7 1090.27L925.7 1093.27L916.7 1090.77L907.2 1078.27H899.7L893.2 1067.77L883.2 1069.77L862.7 1055.27L861.2 1049.27H850.2L848.7 1056.77L842.7 1053.27M742.2 924.268L761.2 929.268L778.7 947.268L795.2 952.768L801.2 968.768L813.2 976.268L808.2 987.268L819.7 1004.77L813.2 1012.77L809.7 1007.77L801.2 1009.77L809.7 1022.27V1030.77L817.2 1032.27L819.7 1036.77L842.7 1053.27M727.2 875.768L733.7 874.268V862.768L747.2 859.768V854.768L761.2 850.768V859.768L774.2 857.268L778.7 843.268L805.7 836.768L832.2 824.268V820.768M727.2 875.768L731.2 891.268L745.7 897.268L749.2 912.268L751.2 914.768L747.2 918.768M727.2 875.768L706.2 880.268L695.2 872.768L688.7 876.768L682.2 872.768L662.2 875.768V863.268L673.2 859.768L679.7 865.768L686.7 859.768M747.2 918.768L742.2 924.268M747.2 918.768L742.2 916.268L728.2 919.268V914.768L719.7 916.268L698.7 929.268L692.7 921.268L695.2 906.268H690.2L692.7 897.268L683.2 895.768L671.7 905.768L675.2 912.268L663.2 911.768L659.2 921.268L654.7 919.268L641.7 926.268L639.2 921.268M742.2 924.268L731.2 926.268L713.7 928.268L690.2 944.268L697.7 959.268L690.2 971.768L687.2 982.768L670.7 984.768L675.2 991.768V995.768L663.7 1002.27V1020.77L652.7 1026.77L647.2 1020.77L633.2 1026.77L636.7 1032.27H623.2L614.2 1038.77V1059.27L584.7 1064.77L578.7 1068.77H553.2L529.2 1059.27M618.2 917.768H610.7L604.7 914.768L601.2 922.268H589.7L587.2 938.768L575.2 945.268L562.7 947.268V954.268L557.2 959.268H548.7L534.2 950.768L531.7 970.768L526.7 972.768L527.7 976.768L523.7 979.768V987.768L529.2 1027.77L543.2 1032.27L544.7 1041.77L529.2 1059.27L539.2 1072.27L543.2 1081.27L559.2 1086.77V1104.27L567.7 1106.77L565.7 1117.27L543.2 1123.27L539.2 1145.27M944.7 662.934L933.7 665.268L932.2 678.768L919.7 681.268L912.7 687.768L915.2 710.768L905.2 715.268L877.2 709.268L864.7 745.268L868.7 753.768H856.7L854.2 749.268L826.2 759.768L832.2 764.768L841.7 797.268L832.2 807.268V820.768M944.7 662.934L933.7 655.768V645.768L923.7 655.768L910.2 651.768L906.7 638.768L894.2 634.768L893.2 626.268L882.2 616.768L869.2 620.768L868.2 625.768L853.7 624.768L850.7 618.268H846.2V613.268L837.2 609.268L828.2 622.268L796.2 559.268L772.7 538.268L777.7 536.768L780.2 528.268L741.7 546.768L740.2 555.268L734.7 549.268L725.2 555.268L723.2 549.268L730.2 538.268L720.7 541.268L707.2 531.268L705.7 538.268H689.7L687.7 531.268L689.7 522.768L683.2 505.768H675.7L673.2 510.268L656.2 501.268L645.2 507.268L643.2 515.268L601.7 522.768L598.7 531.268H587.2L578.7 535.768H564.2L541.2 541.268L535.2 539.268L530.7 542.768L533.2 546.768V555.268L548.2 564.768L530.7 566.268L526.7 574.768L531.7 583.268L516.2 592.268L522.2 599.268L541.2 611.768L537.7 623.268L522.2 626.268L516.2 621.768L508.2 628.268L497.2 623.268L489.2 613.768H479.2L474.2 618.768L460.7 615.768L448.7 628.268L435.7 618.768L427.7 619.768L409.7 605.768H395.7L393.7 598.268L383.2 607.768L377.2 605.768V598.268H371.2L364.2 609.268L348.2 613.768V623.268L337.2 626.268L342.2 643.268L333.7 646.768L322.2 631.268L315.2 643.268L309.2 646.768L308.2 656.268L312.2 661.768L303.2 680.268L310.7 682.268L313.7 691.768L329.2 696.268L343.2 715.768L340.7 721.768H335.7L347.7 730.043M452.2 837.768H442.7L426.2 813.268L404.2 819.268L397.2 826.768V816.268L399.7 809.268L398.7 804.768H385.7V800.268H379.2L377.2 786.268L370.7 776.768L364.2 774.768L360.2 768.768L377.2 767.268L373.2 757.768L385.7 748.768L402.7 754.268L411.7 755.768L410.7 770.268L418.7 757.768H428.7L435.2 754.268L422.7 741.268L413.2 745.268L407.2 741.268L409.2 738.268V721.768L404.2 714.268L397.2 713.268L394.7 715.768H385.7L377.2 709.768L356.2 723.268V731.768H350.2L347.7 730.043M832.2 820.768L824.2 812.268L819.7 813.268L815.7 805.768L752.2 804.768L737.7 796.268L727.2 799.268L725.7 812.268L701.7 804.768H692.2L685.028 817.768L684.2 819.268L651.2 843.768V851.268H641.7L639.2 839.268L619.7 841.268L618.2 825.768H609.7L610.7 803.268L606.2 804.768L591.2 786.268L587.7 790.768H548.2L535.2 774.768L494.2 745.268L453.7 756.768L452.2 837.768M452.2 837.768H468.7V824.268L483.7 819.268L486.2 813.268L489.2 809.268H497.2L505.7 816.268H514.7V835.768L533.7 841.268L536.7 837.768L548.2 847.768L553.2 863.268L601.2 899.768L618.2 902.768V917.768M618.2 917.768L639.2 921.268M639.2 921.268L647.7 899.768L641.7 895.768V887.268L632.2 882.268L629.7 876.768L632.2 874.268H651.2L653.2 865.768L648.7 860.768H657.2L660.7 849.268L667.7 851.268L681.2 843.768L683.2 848.268L677.7 855.768L682.2 859.768H686.7M685.028 817.768L692.2 819.268L677.7 835.768L697.7 839.268L719.7 848.268L717.2 852.768L704.7 854.268L701.7 859.768H686.7M1296.7 1258.77L1306.7 1251.27L1313.7 1228.27L1288.7 1232.27L1275.7 1243.27V1251.27L1296.7 1258.77ZM1466.2 1196.27L1453.7 1173.77L1470.2 1143.27L1479.2 1138.27L1487.2 1143.27L1466.2 1196.27ZM1462.2 1252.77L1471.2 1251.27L1484.7 1258.77L1490.7 1254.77V1261.77L1496.2 1276.77L1489.2 1291.27L1480.7 1299.27V1322.27H1493.7L1512.2 1330.27L1515.2 1351.77L1509.2 1360.27H1502.2L1506.7 1347.77L1502.2 1335.27L1495.2 1331.27V1339.77L1481.7 1329.27L1471.2 1335.27L1463.2 1321.77L1453.7 1313.77V1289.27L1461.2 1293.27V1267.77L1462.2 1252.77ZM1461.2 1339.77L1457.7 1347.77L1466.7 1357.77L1475.7 1342.27L1461.2 1339.77ZM1503.7 1368.27L1490.2 1367.27L1483.2 1383.27L1496.2 1381.27L1503.7 1368.27ZM1502.2 1377.27H1509.2L1503.7 1393.77L1504.7 1405.77L1490.2 1395.27L1499.2 1389.27L1502.2 1377.27ZM1517.7 1377.27L1509.2 1389.27V1396.77L1518.7 1388.27L1517.7 1377.27ZM1524.2 1391.27L1515.2 1398.77L1525.7 1400.77L1524.2 1391.27ZM1531.2 1388.27V1378.77H1522.7L1535.7 1351.77L1545.7 1374.27L1535.7 1372.77V1386.77L1531.2 1388.27ZM1541.7 1396.77L1540.7 1406.27L1535.7 1409.27L1527.7 1406.27L1529.7 1415.27L1515.2 1420.27L1513.7 1415.27L1506.7 1413.27L1500.2 1421.27H1493.7L1485.2 1431.27L1490.2 1439.77L1496.2 1428.77L1500.2 1431.27L1509.2 1428.77L1522.7 1433.27L1515.2 1441.77L1524.2 1453.27L1537.7 1455.27L1540.7 1460.27L1544.7 1448.77L1540.7 1439.77L1545.7 1433.27L1551.2 1448.77L1559.2 1437.27L1554.7 1425.27L1552.7 1406.27L1541.7 1396.77ZM1448.2 1372.77L1441.7 1385.27L1430.7 1391.27L1424.2 1402.77L1409.7 1413.27L1420.7 1415.27L1429.2 1405.77L1435.2 1393.77L1446.2 1391.27L1449.7 1383.27L1448.2 1372.77Z" stroke="#0D83D0" stroke-width="5"/>
<path d="M1777.7 824.768L1772.7 831.268L1766.2 829.768L1769.7 821.768L1762.2 816.268L1775.2 801.768L1771.2 795.268L1788.7 797.268L1787.2 785.768L1793.7 781.768L1796.2 761.768L1791.2 755.268L1799.2 745.268L1819.2 770.768L1838.7 780.768L1848.7 776.768L1854.7 795.768L1847.2 802.268L1834.7 801.768L1826.2 807.768L1820.7 824.768L1796.2 809.768L1784.2 816.768L1778.2 810.768L1773.2 816.268L1784.2 825.768L1777.7 824.768Z" stroke="#FE1010" stroke-width="5"/>
<path d="M1627.7 981.268L1605.2 995.268L1606.7 1003.77L1613.7 1006.27L1615.7 999.768L1618.7 1001.27L1620.2 1012.77L1613.7 1018.27V1031.77L1623.7 1038.27L1634.7 1026.27L1636.2 1014.77L1642.7 1003.77L1636.2 995.268L1639.7 990.768L1627.7 987.268V981.268ZM1627.7 981.268H1639.7L1645.2 985.268L1648.7 978.768H1655.2L1677.7 970.268H1692.7L1694.2 974.268L1690.2 985.268L1695.7 990.768H1705.2L1709.7 981.268L1719.7 978.768L1717.2 965.268L1727.7 972.768H1736.7L1746.7 962.768L1752.2 970.268L1755.7 960.268H1760.7L1764.7 951.768H1769.7L1764.7 965.268L1773.2 962.768L1780.7 951.768L1782.2 947.268L1778.2 942.268L1780.7 935.268L1784.7 900.268L1792.2 894.768V890.268L1801.2 880.268V870.268L1795.7 854.768V839.768L1787.2 828.768L1780.7 841.268H1787.2V846.268H1778.7L1772.2 839.768V848.268L1762.7 865.268L1767.7 870.268V882.268L1752.2 909.268L1725.7 926.768L1722.2 921.268L1727.7 910.768L1715.7 915.268V929.768L1708.2 937.268L1705.2 950.268L1694.2 954.268V947.268L1653.7 954.268L1627.7 981.268ZM1653.7 1006.27L1650.2 1001.27V990.768L1655.2 983.268L1661.7 985.268L1672.2 978.768L1683.7 983.268L1677.7 995.268L1669.2 992.268L1653.7 1006.27Z" stroke="#FE1010" stroke-width="5"/>
<path d="M1809.7 718.768L1801.7 736.268L1797.7 725.768L1798.7 717.768L1799.7 708.268L1797.7 702.268L1803.2 691.268L1798.7 677.768L1797.7 670.768L1802.2 649.268L1799.7 637.268V626.268L1803.7 613.268L1796.7 603.268L1794.2 586.768L1798.2 567.768L1795.7 557.768L1807.2 554.768L1809.2 542.768L1802.7 533.268L1809.2 526.268L1815.2 536.268L1818.2 553.268L1820.2 576.268L1818.2 594.268L1825.2 611.268L1826.2 626.268L1832.2 640.768L1837.7 666.268L1825.2 659.268L1815.2 663.268V675.768L1808.7 687.768L1810.7 697.768L1823.7 715.268L1825.2 729.268L1809.7 718.768Z" stroke="#0D83D0" stroke-width="5"/>
</svg>
