<svg width="2152" height="1232" viewBox="0 0 2152 1232" fill="none" xmlns="http://www.w3.org/2000/svg">
<path d="M1539.96 539.806L1528.46 549.806L1526.46 553.306V571.806H1521.96L1503.46 588.306H1497.46L1490.46 593.806V603.306L1497.46 607.806L1505.46 614.806L1508.46 627.306L1515.46 634.306L1521.96 647.306V665.306L1523.96 674.806L1517.96 687.306H1508.46L1495.46 692.806L1486.46 700.806L1478.46 702.306L1467.96 699.306L1474.46 692.806V683.306L1470.96 671.806L1478.46 662.806L1470.96 649.806H1480.46V643.306L1472.96 640.806V634.306M1472.96 634.306L1478.46 632.806L1483.96 623.306H1500.96L1505.46 614.806M1472.96 634.306L1457.96 632.806L1444.96 625.306L1452.96 614.806L1457.96 600.306L1449.96 593.806L1438.46 591.806M1438.46 591.806L1460.46 573.306L1467.96 569.806L1474.46 560.806L1476.46 553.306L1483.96 550.806L1486.46 557.806L1500.96 560.806L1503.46 555.806L1500.96 547.806L1512.96 545.806L1521.96 538.306H1523.96L1529.46 524.806L1534.71 532.306M1090.96 911.306L1102.46 906.306L1107.46 912.306L1125.96 907.806L1142.96 897.806L1148.96 901.806L1164.46 906.306V912.306V920.306L1175.46 924.806H1187.96L1214.96 929.306L1211.46 937.806L1214.96 948.306L1225.96 946.806L1222.96 939.806L1225.96 931.306H1233.46L1248.46 923.306L1252.96 925.306L1271.46 920.306L1273.96 907.806L1283.46 915.806L1299.46 906.306H1316.46L1324.46 893.806L1337.96 888.806L1345.46 877.806L1352.46 879.306L1356.96 863.806L1367.96 862.306L1365.46 841.306H1374.96V835.306L1381.46 833.306L1386.96 816.806L1399.96 810.306L1396.46 804.306L1402.96 799.306V781.306L1386.96 774.806L1404.96 763.806L1393.96 750.306L1404.96 752.306L1396.96 737.806L1386.96 731.806V724.806L1379.46 700.806L1361.46 691.306L1376.46 666.306H1380.46L1385.46 658.306L1402.96 649.806L1414.46 651.306V638.806H1396.46L1390.96 632.306H1380.46L1370.46 645.806L1357.46 642.806L1361.46 635.306L1357.46 626.806H1343.46L1334.96 617.306L1340.46 606.306H1358.46L1364.96 593.806L1380.46 586.806L1392.46 569.806L1408.96 577.806L1394.46 597.306L1399.96 601.306L1396.46 612.806L1421.96 593.806L1438.46 591.806M1539.96 539.806L1550.46 538.306L1553.96 526.306L1561.46 519.306H1565.96L1567.46 529.306L1578.96 534.806L1599.46 524.806L1613.96 511.806L1622.46 496.306L1637.96 479.306L1657.46 455.306L1663.96 436.806L1673.96 429.306L1677.46 417.806L1691.96 401.806V391.806L1696.96 373.306V337.806L1707.96 318.806L1703.96 304.806V292.806L1707.96 281.806L1699.46 279.306L1683.46 257.306L1673.96 259.306L1667.46 257.306L1661.96 270.306L1654.96 275.806L1643.96 273.306L1650.96 265.306L1643.96 262.806L1636.96 270.306V248.306H1616.96L1611.46 241.306L1628.46 227.806L1650.96 204.306L1667.46 182.306L1686.46 164.806L1696.96 152.806V144.306L1715.46 132.306L1722.96 116.806L1756.46 108.806L1772.46 110.806L1784.46 118.806L1789.96 108.806L1804.46 114.306L1810.46 110.806L1825.96 114.306V105.306L1838.46 100.306L1851.46 105.306L1866.96 104.306L1874.46 114.306L1864.96 118.806V127.306L1880.46 122.306L1885.96 124.806L1894.96 118.806L1904.46 120.806L1913.96 118.806L1925.46 115.806L1920.96 104.306L1908.96 107.306L1911.96 91.8057L1925.46 77.3057L1933.96 71.3057L1936.96 61.3057L1948.46 54.3057V43.8057L1960.46 33.3057L1989.46 30.8057L1992.96 39.3057L2005.46 30.8057L2001.46 46.3057L1994.46 51.8057L1998.46 58.3057H2002.96V65.8057V73.8057L2016.96 65.8057L2017.46 60.3057L2035.46 39.3057L2045.96 35.3057L2046.96 44.8057L2055.96 35.3057L2048.96 28.8057L2050.46 10.8057L2067.46 2.80566L2081.96 10.8057L2080.46 16.3057L2070.96 10.8057L2064.96 20.8057V33.3057L2060.46 41.8057L2062.46 52.8057L2056.96 60.3057V61.3057L2032.46 75.8057L2018.96 99.3057L1994.46 122.306L1968.96 153.806H1960.96V157.306L1948.46 158.806L1953.46 171.306L1933.96 193.306L1929.46 225.806L1936.96 273.306L1944.96 318.306V335.306L1950.46 345.306L1970.46 322.806L1978.46 306.806L1975.96 299.806L1986.96 286.306L2001.46 284.306L1999.96 263.306L2011.46 249.806H2028.46L2034.46 239.306L2028.46 227.806L2032.46 204.806L2042.46 201.306L2045.96 208.306L2051.96 204.806V187.806L2043.46 187.306V168.806L2051.96 158.806L2044.46 152.806L2039.46 158.806L2030.96 149.806L2039.46 128.306L2048.96 122.306V115.806L2053.96 113.806L2051.96 97.8057L2062.96 91.8057L2076.96 96.3057L2080.96 94.3057V86.8057L2099.46 78.3057L2094.96 99.3057L2105.46 91.8057L2116.46 78.3057L2137.46 71.3057L2149.96 78.3057M1539.96 539.806L1534.71 532.306M1187.96 924.806L1175.46 937.806H1168.96L1164.46 950.806L1152.46 956.306L1148.46 970.306L1151.46 976.806L1160.96 985.806L1164.46 995.306L1187.96 1015.81L1197.96 1029.81L1206.96 1060.81L1205.46 1088.81L1200.96 1095.81L1186.46 1101.31V1104.81L1169.46 1108.81L1162.96 1117.81V1123.31L1148.96 1128.31L1139.96 1139.31L1134.96 1134.81V1119.81L1138.96 1115.81L1129.96 1109.81M1129.96 1109.81L1119.96 1106.81L1111.46 1101.31L1105.96 1099.81L1104.96 1088.81L1103.71 1080.81M1129.96 1109.81L1144.96 1099.81L1157.46 1104.81L1151.46 1090.81L1160.96 1088.81L1168.96 1082.31L1180.96 1072.81L1173.71 1044.31M1144.96 1046.31H1111.46L1096.46 1057.81L1102.46 1072.81L1103.71 1080.81M1144.96 1046.31L1151.46 1051.31L1162.96 1042.31L1168.96 1046.31L1173.71 1044.31M1144.96 1046.31L1148.46 1044.31L1146.46 1020.81H1140.96L1134.96 1007.31L1136.96 997.306L1121.96 981.306H1111.46L1099.46 988.806L1092.46 982.806L1076.46 995.306L1080.46 959.806L1068.46 961.306V950.806L1063.96 948.306H1061.96M1090.96 911.306L1099.46 925.306L1104.96 920.306L1105.96 931.306L1111.46 939.806H1125.96L1136.96 950.806L1123.96 956.306L1121.96 964.806L1142.96 976.806V982.806L1155.46 992.306L1164.46 1009.31L1175.46 1015.81V1025.81L1178.46 1029.81V1042.31L1173.71 1044.31M936.808 934.011L940.956 929.306L945.456 933.806V920.306L950.956 917.806L955.456 886.306L968.956 888.306L976.456 874.806V861.306L986.456 839.806L1005.96 827.806L1012.46 834.306V821.306L1019.96 819.306L1018.46 810.806L1021.46 806.806L1029.96 811.806L1039.96 836.306V853.306L1026.96 864.306L1021.46 876.306L1022.96 889.306L1041.96 881.806V900.806H1052.96L1048.96 915.806L1058.46 917.806L1063.96 927.806H1077.46L1079.46 932.306L1087.96 933.806L1083.96 913.306L1090.96 911.306M1061.96 948.306H1052.96L1046.46 953.806L1037.96 959.806L1028.46 956.306L1022.96 976.806H1018.96L1037.96 1015.81V1023.81L1032.46 1035.81L1046.46 1057.81L1052.96 1088.81L1046.46 1099.81L1037.46 1111.67L1035.46 1114.31V1119.81L1032.46 1126.31V1144.31L1037.96 1142.31L1052.96 1157.31L1060.96 1173.81L1063.96 1169.31L1074.46 1175.81V1182.31L1086.96 1183.81L1094.46 1173.81L1085.46 1165.81H1074.46L1067.96 1154.81L1063.96 1142.31L1058.96 1134.81L1055.46 1128.31L1047.96 1126.31L1046.46 1115.81L1058.96 1084.31L1060.96 1060.81H1074.46L1072.46 1072.81H1089.96L1103.71 1080.81M1061.96 948.306L1063.96 939.806H1070.96L1070.46 932.306L1077.46 927.806M1037.46 1111.67L1040.96 1088.81L1037.46 1079.31L1035.46 1065.81L1029.46 1059.31L1028.46 1049.81L1025.46 1040.31L1022.96 1023.81L1011.96 998.306L1008.46 1011.31L1000.46 1013.31L987.456 1023.81L967.456 1019.81L975.956 998.306L969.956 979.306L958.956 959.806L950.956 956.306L940.956 942.306L936.808 934.011M236.956 1230.81L233.956 1216.81L253.456 1190.81L267.956 1158.81L279.456 1143.81L282.456 1134.31L291.456 1126.31L289.456 1111.31L295.956 1107.81L293.956 1100.31L295.956 1087.31L287.456 1083.81L273.956 1093.81H253.456L249.456 1097.81H233.956L222.956 1103.31L212.956 1100.31L200.956 1109.31L184.456 1107.81L170.956 1090.81H162.956L173.456 1083.81L167.456 1074.31L162.956 1070.31L147.456 1051.81L132.456 1036.31H123.956L118.456 1031.31L109.956 1025.31L108.456 1005.81L97.4556 985.806L80.4556 974.306L76.4556 939.806L68.4556 916.306L53.4556 905.306L49.9556 886.806H53.4556L46.9556 880.306L25.4556 839.306L19.4556 819.306L6.95557 807.306L2.45557 783.806L11.4556 794.806L15.4556 807.306L30.4556 819.306L37.9556 791.806H42.4556L37.9556 812.306H42.4556L76.4556 863.806L80.4556 880.306L97.4556 890.306L106.456 908.306L104.956 925.806L114.956 943.806L132.456 958.806L150.456 991.306L162.956 1009.31L160.956 1024.31L170.956 1051.81V1066.31L179.456 1074.31L198.456 1070.31L206.456 1062.31H222.956L242.956 1051.81H257.456L265.456 1040.81L295.956 1033.31L310.956 1023.81V1018.31L318.456 1012.31L332.956 1006.31L355.456 1003.81L364.456 989.306H375.956L383.456 973.306L399.956 969.806V954.306H406.956L399.956 943.306L406.956 947.806L415.956 934.306L425.456 929.806L430.956 915.306L409.956 890.806L406.956 894.306L386.956 883.806L375.956 869.306V850.306L355.456 865.806L343.956 883.806L324.956 880.806L304.956 883.806L302.956 879.306H296.956L304.956 867.306V852.806L294.456 845.306L288.956 856.306V872.306L278.456 856.306L276.456 838.806L267.456 833.306L265.956 826.806L257.956 822.306L252.956 804.806L245.456 791.806L249.956 785.306V780.306H260.956V775.306L268.456 782.806L278.456 777.806L280.456 782.806L291.456 797.806L294.456 807.306L300.456 818.806L315.956 822.306L323.456 830.806L332.956 838.806H343.956L349.456 842.806L361.456 834.806L381.456 830.806L390.456 842.806V856.306L409.956 858.306L415.956 861.306H425.456L457.456 869.306M1534.71 532.306L1546.96 527.806L1550.46 513.806V499.806L1544.46 486.806L1559.46 474.806L1575.96 480.806L1578.96 479.306V470.306L1585.46 466.806L1593.46 442.306L1595.46 429.306L1605.46 420.806L1600.96 411.806L1606.96 404.306L1575.96 411.806L1571.46 420.806H1544.46L1540.46 411.806V393.306H1531.96L1520.46 379.806L1514.46 381.806L1511.46 375.806L1493.46 374.306L1491.96 360.306L1487.96 359.306V345.306L1480.96 338.306L1475.96 310.806L1462.96 288.306H1448.96L1428.46 273.306L1394.96 281.806H1385.96L1372.46 296.306V301.306H1385.96V318.806L1372.46 324.806L1358.96 355.806L1363.96 364.806L1354.96 367.306L1341.46 375.806L1321.96 369.306M1321.96 369.306L1303.46 411.806L1308.46 420.806L1323.96 415.306L1332.46 422.306L1341.46 411.806L1348.46 415.306L1370.46 432.806L1372.46 442.306L1370.46 447.806L1348.46 442.306L1337.96 447.806H1332.46V451.806L1320.46 453.806L1314.46 466.806L1303.46 474.806H1287.96L1275.46 486.806L1247.46 480.806L1238.46 494.306L1247.46 511.806L1209.46 538.306L1166.46 539.806L1138.46 557.806L1131.96 555.806V549.806H1111.96L1070.96 531.306L1046.96 534.806L1003.96 531.306L984.956 501.806L986.956 497.306H978.456L953.456 480.806L915.456 477.806L911.456 466.806L919.456 460.306V442.306L902.456 415.306L896.456 411.806H885.456L870.456 399.806L872.956 394.806L868.456 392.806V385.806M1321.96 369.306L1316.96 364.806L1303.46 369.306L1285.46 358.306L1264.96 369.306V375.806L1229.46 385.806L1195.96 382.806L1182.96 364.806L1171.96 367.306L1165.46 355.806L1145.46 353.306L1118.96 364.806L1099.46 355.806L1094.96 333.806L1056.96 324.306V317.806L1044.96 309.806L1026.96 330.306V344.806L1033.96 353.306L1029.96 364.806L1015.46 372.306L998.456 364.806L991.956 369.306L973.956 362.806L969.956 349.806L951.956 348.806L945.456 349.806L940.956 344.806L904.456 362.806V367.306H896.456L891.956 379.806H875.456L868.456 385.806M868.456 385.806L862.956 386.972M936.808 934.011L934.956 930.306L931.956 918.806L929.956 910.306L924.956 907.306L920.456 910.306L914.456 899.806L912.456 904.806L916.956 913.306L912.456 920.306L889.956 926.806H888.956M560.706 892.056L565.456 896.806L572.456 903.806L583.456 906.806L591.956 903.806L587.956 911.306L576.456 914.306V919.806L587.956 934.306L602.456 942.306L619.956 936.806L623.456 929.806L627.956 916.806L630.956 929.806L634.456 944.306L630.956 952.306L634.456 964.806V976.806L641.456 1008.81L652.456 1034.31L660.956 1050.31L664.956 1071.81L671.456 1086.81L680.956 1095.31L687.956 1119.81L692.956 1134.31L702.456 1144.31H715.956L721.956 1131.31L732.956 1128.81L729.956 1124.81L736.956 1112.81H743.956V1086.81L749.956 1076.81L751.956 1059.31L747.956 1032.31L751.956 1025.81L759.956 1023.81L769.456 1014.31L781.956 1011.31V1003.81L792.956 995.806L806.956 984.806L819.956 970.306L826.456 960.806L847.456 954.306L855.456 941.806L853.956 935.806L856.956 929.306L867.456 926.806L872.956 921.306L875.956 926.806H888.956M560.706 892.056L555.956 887.306H548.956L544.956 871.806L535.956 869.806V864.806L528.456 861.306L505.956 864.806H490.456H467.456L459.456 869.806L457.456 869.306M560.706 892.056L563.956 887.306L572.456 886.306V879.306L591.956 883.306L599.956 879.306L603.456 882.306L607.956 877.806L602.456 857.306L591.956 852.306V841.306L580.956 838.306L591.956 817.306L599.456 814.306L605.456 822.806L620.456 817.306L626.956 802.306L637.956 798.806L643.956 779.306L651.456 777.306L652.456 769.306L663.956 760.806L660.456 754.806L662.456 744.806H672.956V736.806L658.456 726.306L654.956 719.806V706.806L649.456 697.806L652.456 686.306L671.456 690.306L672.956 697.806L698.456 688.306L713.456 676.806M760.956 777.306L752.456 783.306L747.956 802.306L807.456 829.806L817.956 827.806L827.456 838.306L836.456 836.806L845.456 842.806H876.456M888.956 926.806L887.956 898.306L880.456 888.306L882.456 879.306L872.956 873.306L879.456 865.306L886.956 863.806L872.956 854.306L876.456 842.806L872.956 829.806L874.456 816.306L861.956 817.306L854.956 814.306L843.956 817.306L834.956 814.806L825.456 802.306H817.956L811.456 791.806L801.456 793.806L780.956 779.306L779.456 773.306H768.456L766.956 780.806L760.956 777.306M660.456 648.306L679.456 653.306L696.956 671.306L713.456 676.806L719.456 692.806L731.456 700.306L726.456 711.306L737.956 728.806L731.456 736.806L727.956 731.806L719.456 733.806L727.956 746.306V754.806L735.456 756.306L737.956 760.806L760.956 777.306M645.456 599.806L651.956 598.306V586.806L665.456 583.806V578.806L679.456 574.806V583.806L692.456 581.306L696.956 567.306L723.956 560.806L750.456 548.306V544.806M645.456 599.806L649.456 615.306L663.956 621.306L667.456 636.306L669.456 638.806L665.456 642.806M645.456 599.806L624.456 604.306L613.456 596.806L606.956 600.806L600.456 596.806L580.456 599.806V587.306L591.456 583.806L597.956 589.806L604.956 583.806M665.456 642.806L660.456 648.306M665.456 642.806L660.456 640.306L646.456 643.306V638.806L637.956 640.306L616.956 653.306L610.956 645.306L613.456 630.306H608.456L610.956 621.306L601.456 619.806L589.956 629.806L593.456 636.306L581.456 635.806L577.456 645.306L572.956 643.306L559.956 650.306L557.456 645.306M660.456 648.306L649.456 650.306L631.956 652.306L608.456 668.306L615.956 683.306L608.456 695.806L605.456 706.806L588.956 708.806L593.456 715.806V719.806L581.956 726.306V744.806L570.956 750.806L565.456 744.806L551.456 750.806L554.956 756.306H541.456L532.456 762.806V783.306L502.956 788.806L496.956 792.806H471.456L447.456 783.306M536.456 641.806H528.956L522.956 638.806L519.456 646.306H507.956L505.456 662.806L493.456 669.306L480.956 671.306V678.306L475.456 683.306H466.956L452.456 674.806L449.956 694.806L444.956 696.806L445.956 700.806L441.956 703.806V711.806L447.456 751.806L461.456 756.306L462.956 765.806L447.456 783.306L457.456 796.306L461.456 805.306L477.456 810.806V828.306L485.956 830.806L483.956 841.306L461.456 847.306L457.456 869.306M862.956 386.972L851.956 389.306L850.456 402.806L837.956 405.306L830.956 411.806L833.456 434.806L823.456 439.306L795.456 433.306L782.956 469.306L786.956 477.806H774.956L772.456 473.306L744.456 483.806L750.456 488.806L759.956 521.306L750.456 531.306V544.806M862.956 386.972L851.956 379.806V369.806L841.956 379.806L828.456 375.806L824.956 362.806L812.456 358.806L811.456 350.306L800.456 340.806L787.456 344.806L786.456 349.806L771.956 348.806L768.956 342.306H764.456V337.306L755.456 333.306L746.456 346.306L714.456 283.306L690.956 262.306L695.956 260.806L698.456 252.306L659.956 270.806L658.456 279.306L652.956 273.306L643.456 279.306L641.456 273.306L648.456 262.306L638.956 265.306L625.456 255.306L623.956 262.306H607.956L605.956 255.306L607.956 246.806L601.456 229.806H593.956L591.456 234.306L574.456 225.306L563.456 231.306L561.456 239.306L519.956 246.806L516.956 255.306H505.456L496.956 259.806H482.456L459.456 265.306L453.456 263.306L448.956 266.806L451.456 270.806V279.306L466.456 288.806L448.956 290.306L444.956 298.806L449.956 307.306L434.456 316.306L440.456 323.306L459.456 335.806L455.956 347.306L440.456 350.306L434.456 345.806L426.456 352.306L415.456 347.306L407.456 337.806H397.456L392.456 342.806L378.956 339.806L366.956 352.306L353.956 342.806L345.956 343.806L327.956 329.806H313.956L311.956 322.306L301.456 331.806L295.456 329.806V322.306H289.456L282.456 333.306L266.456 337.806V347.306L255.456 350.306L260.456 367.306L251.956 370.806L240.456 355.306L233.456 367.306L227.456 370.806L226.456 380.306L230.456 385.806L221.456 404.306L228.956 406.306L231.956 415.806L247.456 420.306L261.456 439.806L258.956 445.806H253.956L268.456 455.806H274.456V447.306L295.456 433.806L303.956 439.806H312.956L315.456 437.306L322.456 438.306L327.456 445.806V462.306L325.456 465.306L331.456 469.306L340.956 465.306L353.456 478.306L346.956 481.806H336.956L328.956 494.306L329.956 479.806L320.956 478.306L303.956 472.806L291.456 481.806L295.456 491.306L278.456 492.806L282.456 498.806L288.956 500.806L295.456 510.306L297.456 524.306H303.956V528.806H316.956L317.956 533.306L315.456 540.306V550.806L322.456 543.306L344.456 537.306L360.956 561.806H370.456M750.456 544.806L742.456 536.306L737.956 537.306L733.956 529.806L670.456 528.806L655.956 520.306L645.456 523.306L643.956 536.306L619.956 528.806H610.456L603.283 541.806L602.456 543.306L569.456 567.806V575.306H559.956L557.456 563.306L537.956 565.306L536.456 549.806H527.956L528.956 527.306L524.456 528.806L509.456 510.306L505.956 514.806H466.456L453.456 498.806L412.456 469.306L371.956 480.806L370.456 561.806M370.456 561.806H386.956V548.306L401.956 543.306L404.456 537.306L407.456 533.306H415.456L423.956 540.306H432.956V559.806L451.956 565.306L454.956 561.806L466.456 571.806L471.456 587.306L519.456 623.806L536.456 626.806V641.806M536.456 641.806L557.456 645.306M557.456 645.306L565.956 623.806L559.956 619.806V611.306L550.456 606.306L547.956 600.806L550.456 598.306H569.456L571.456 589.806L566.956 584.806H575.456L578.956 573.306L585.956 575.306L599.456 567.806L601.456 572.306L595.956 579.806L600.456 583.806H604.956M603.283 541.806L610.456 543.306L595.956 559.806L615.956 563.306L637.956 572.306L635.456 576.806L622.956 578.306L619.956 583.806H604.956M1214.96 982.806L1224.96 975.306L1231.96 952.306L1206.96 956.306L1193.96 967.306V975.306L1214.96 982.806ZM1384.46 920.306L1371.96 897.806L1388.46 867.306L1397.46 862.306L1405.46 867.306L1384.46 920.306ZM1380.46 976.806L1389.46 975.306L1402.96 982.806L1408.96 978.806V985.806L1414.46 1000.81L1407.46 1015.31L1398.96 1023.31V1046.31H1411.96L1430.46 1054.31L1433.46 1075.81L1427.46 1084.31H1420.46L1424.96 1071.81L1420.46 1059.31L1413.46 1055.31V1063.81L1399.96 1053.31L1389.46 1059.31L1381.46 1045.81L1371.96 1037.81V1013.31L1379.46 1017.31V991.806L1380.46 976.806ZM1379.46 1063.81L1375.96 1071.81L1384.96 1081.81L1393.96 1066.31L1379.46 1063.81ZM1421.96 1092.31L1408.46 1091.31L1401.46 1107.31L1414.46 1105.31L1421.96 1092.31ZM1420.46 1101.31H1427.46L1421.96 1117.81L1422.96 1129.81L1408.46 1119.31L1417.46 1113.31L1420.46 1101.31ZM1435.96 1101.31L1427.46 1113.31V1120.81L1436.96 1112.31L1435.96 1101.31ZM1442.46 1115.31L1433.46 1122.81L1443.96 1124.81L1442.46 1115.31ZM1449.46 1112.31V1102.81H1440.96L1453.96 1075.81L1463.96 1098.31L1453.96 1096.81V1110.81L1449.46 1112.31ZM1459.96 1120.81L1458.96 1130.31L1453.96 1133.31L1445.96 1130.31L1447.96 1139.31L1433.46 1144.31L1431.96 1139.31L1424.96 1137.31L1418.46 1145.31H1411.96L1403.46 1155.31L1408.46 1163.81L1414.46 1152.81L1418.46 1155.31L1427.46 1152.81L1440.96 1157.31L1433.46 1165.81L1442.46 1177.31L1455.96 1179.31L1458.96 1184.31L1462.96 1172.81L1458.96 1163.81L1463.96 1157.31L1469.46 1172.81L1477.46 1161.31L1472.96 1149.31L1470.96 1130.31L1459.96 1120.81ZM1366.46 1096.81L1359.96 1109.31L1348.96 1115.31L1342.46 1126.81L1327.96 1137.31L1338.96 1139.31L1347.46 1129.81L1353.46 1117.81L1364.46 1115.31L1367.96 1107.31L1366.46 1096.81Z" stroke="#0D83D0" stroke-width="5"/>
<path d="M1695.96 548.806L1690.96 555.306L1684.46 553.806L1687.96 545.806L1680.46 540.306L1693.46 525.806L1689.46 519.306L1706.96 521.306L1705.46 509.806L1711.96 505.806L1714.46 485.806L1709.46 479.306L1717.46 469.306L1737.46 494.806L1756.96 504.806L1766.96 500.806L1772.96 519.806L1765.46 526.306L1752.96 525.806L1744.46 531.806L1738.96 548.806L1714.46 533.806L1702.46 540.806L1696.46 534.806L1691.46 540.306L1702.46 549.806L1695.96 548.806Z" stroke="#FE1010" stroke-width="5"/>
<path d="M1545.96 705.306L1523.46 719.306L1524.96 727.806L1531.96 730.306L1533.96 723.806L1536.96 725.306L1538.46 736.806L1531.96 742.306V755.806L1541.96 762.306L1552.96 750.306L1554.46 738.806L1560.96 727.806L1554.46 719.306L1557.96 714.806L1545.96 711.306V705.306ZM1545.96 705.306H1557.96L1563.46 709.306L1566.96 702.806H1573.46L1595.96 694.306H1610.96L1612.46 698.306L1608.46 709.306L1613.96 714.806H1623.46L1627.96 705.306L1637.96 702.806L1635.46 689.306L1645.96 696.806H1654.96L1664.96 686.806L1670.46 694.306L1673.96 684.306H1678.96L1682.96 675.806H1687.96L1682.96 689.306L1691.46 686.806L1698.96 675.806L1700.46 671.306L1696.46 666.306L1698.96 659.306L1702.96 624.306L1710.46 618.806V614.306L1719.46 604.306V594.306L1713.96 578.806V563.806L1705.46 552.806L1698.96 565.306H1705.46V570.306H1696.96L1690.46 563.806V572.306L1680.96 589.306L1685.96 594.306V606.306L1670.46 633.306L1643.96 650.806L1640.46 645.306L1645.96 634.806L1633.96 639.306V653.806L1626.46 661.306L1623.46 674.306L1612.46 678.306V671.306L1571.96 678.306L1545.96 705.306ZM1571.96 730.306L1568.46 725.306V714.806L1573.46 707.306L1579.96 709.306L1590.46 702.806L1601.96 707.306L1595.96 719.306L1587.46 716.306L1571.96 730.306Z" stroke="#FE1010" stroke-width="5"/>
<path d="M1727.96 442.806L1719.96 460.306L1715.96 449.806L1716.96 441.806L1717.96 432.306L1715.96 426.306L1721.46 415.306L1716.96 401.806L1715.96 394.806L1720.46 373.306L1717.96 361.306V350.306L1721.96 337.306L1714.96 327.306L1712.46 310.806L1716.46 291.806L1713.96 281.806L1725.46 278.806L1727.46 266.806L1720.96 257.306L1727.46 250.306L1733.46 260.306L1736.46 277.306L1738.46 300.306L1736.46 318.306L1743.46 335.306L1744.46 350.306L1750.46 364.806L1755.96 390.306L1743.46 383.306L1733.46 387.306V399.806L1726.96 411.806L1728.96 421.806L1741.96 439.306L1743.46 453.306L1727.96 442.806Z" stroke="#FE1010" stroke-width="5"/>
</svg>
